# This file uses centimeters as units for non-parametric coordinates.

mtllib GrassBig.mtl
g default
v -3148.127709 62.715047 2182.220219
v -3143.636498 57.874745 2185.658482
v -3134.692651 86.980565 2195.395879
v -3138.734643 94.142628 2192.496617
v -3134.120873 94.870000 2187.007176
v -3130.078881 87.707921 2189.906407
v -3139.216088 58.571644 2180.398930
v -3143.707299 63.411946 2176.960667
v -3129.960229 94.979466 2199.545354
v -3133.361108 102.065327 2197.179417
v -3125.722436 95.647542 2194.503392
v -3129.123803 102.733388 2192.137456
v -3124.907494 101.600194 2203.436711
v -3127.317651 107.458882 2201.818272
v -3121.469018 102.142262 2199.345616
v -3123.879174 108.000950 2197.727177
v -3119.811791 106.509328 2206.994359
v -3121.365990 110.874638 2205.991429
v -3117.417748 106.886738 2204.146092
v -3118.972436 111.252034 2203.143193
v -3115.696068 110.035634 2209.404118
v -3116.360131 112.126881 2208.991429
v -3114.570580 110.213063 2208.065007
v -3115.234643 112.304310 2207.652287
v -3113.409447 112.093770 2210.320287
v -3185.598901 62.715047 2161.330266
v -3186.336693 59.027028 2156.683171
v -3187.777123 83.340901 2146.825780
v -3187.118920 88.951466 2150.973088
v -3192.892846 88.951466 2151.889561
v -3193.551049 83.340901 2147.742284
v -3191.868432 59.027028 2157.561253
v -3191.131127 62.715047 2162.208348
v -3188.784447 90.116658 2142.000951
v -3188.232690 95.702733 2145.477483
v -3194.087670 90.116658 2142.842717
v -3193.535424 95.702733 2146.319249
v -3190.071557 95.746129 2137.121373
v -3189.681908 100.388447 2139.574620
v -3194.374779 95.746129 2137.804387
v -3193.985131 100.388447 2140.257634
v -3191.495385 99.957356 2132.371800
v -3191.245385 103.430577 2133.946568
v -3194.491479 99.957356 2132.847325
v -3194.241479 103.430577 2134.422093
v -3192.875268 102.960576 2128.805943
v -3192.768822 104.629201 2129.475865
v -3194.283471 102.960576 2129.029515
v -3194.177026 104.629201 2129.699437
v -3193.869897 104.670460 2127.086400
v -3192.263451 63.427144 2187.390477
v -3195.771752 60.814168 2192.402379
v -3199.068871 92.393010 2198.683934
v -3195.631127 97.403737 2193.904424
v -3189.916772 97.005086 2197.795506
v -3193.354760 91.994343 2202.575017
v -3190.296654 60.432210 2196.130467
v -3186.788354 63.045186 2191.118596
v -3201.099877 101.926259 2202.680272
v -3198.101098 107.146428 2198.556981
v -3195.851342 101.560109 2206.254124
v -3192.852318 106.780263 2202.130864
v -3203.083031 110.151509 2207.100743
v -3200.874291 114.644246 2204.098485
v -3198.824486 109.854405 2210.000615
v -3196.615502 114.347142 2206.998387
v -3205.033471 116.690571 2211.709386
v -3203.550317 120.144261 2209.716954
v -3202.068627 116.483731 2213.728307
v -3200.585473 119.937413 2211.735875
v -3206.250268 121.413022 2215.441319
v -3205.594018 123.102978 2214.568456
v -3204.856225 121.315777 2216.390538
v -3204.199975 123.005726 2215.517674
v -3206.517358 123.988423 2217.472752
v -3176.633568 62.961507 2170.574101
v -3170.795190 60.084477 2166.658147
v -3164.378197 96.397404 2162.308842
v -3170.024682 102.026417 2166.078252
v -3174.451440 101.948506 2159.508000
v -3168.805443 96.319493 2155.738560
v -3175.036401 60.009831 2160.363042
v -3180.875268 62.886861 2164.279027
v -3160.448510 107.422063 2159.203008
v -3165.347436 113.306187 2162.467320
v -3164.514428 107.350499 2153.168309
v -3169.413842 113.234624 2156.432652
v -3156.399193 116.971463 2155.587743
v -3159.987572 122.048306 2157.974156
v -3159.698510 116.913396 2150.691136
v -3163.286889 121.990246 2153.077580
v -3152.317651 124.601384 2151.708928
v -3154.714135 128.511395 2153.299229
v -3154.615014 124.560956 2148.299870
v -3157.011010 128.470975 2149.890172
v -3149.403100 130.137059 2148.397343
v -3150.458276 132.052663 2149.096501
v -3150.482690 130.118062 2146.794560
v -3151.538354 132.033665 2147.493718
v -3148.236596 133.169438 2146.427281
v -3181.774193 62.715047 2183.726598
v -3186.993432 62.674031 2189.412572
v -3187.167260 102.522313 2189.343785
v -3181.715111 105.442219 2183.403783
v -3175.571557 105.442219 2189.043126
v -3181.023705 102.522313 2194.983128
v -3181.107201 62.674031 2194.815739
v -3175.887963 62.715047 2189.129735
v -3188.734643 115.700688 2191.553868
v -3183.861596 119.246045 2186.245030
v -3183.091576 115.700688 2196.733525
v -3178.218529 119.246045 2191.424687
v -3190.495385 127.548558 2194.540074
v -3186.816674 130.921239 2190.532445
v -3185.916283 127.548558 2198.742894
v -3182.238061 130.921239 2194.735234
v -3192.488549 137.529919 2198.107579
v -3189.958276 140.308125 2195.350926
v -3189.300561 137.529919 2201.033604
v -3186.770287 140.308125 2198.276952
v -3193.757592 144.873669 2201.185582
v -3192.615990 146.293111 2199.941563
v -3192.259057 144.873669 2202.561253
v -3191.116967 146.293111 2201.317235
v -3193.981225 148.790219 2202.933568
v -3177.739037 62.715047 2179.482030
v -3171.198510 62.680287 2179.482030
v -3171.141869 96.446248 2179.630009
v -3177.974389 98.920476 2179.630009
v -3177.974389 98.920476 2172.563390
v -3171.141869 96.446248 2172.563390
v -3171.198510 62.680287 2172.711369
v -3177.739037 62.715047 2172.711369
v -3168.864526 107.613118 2179.341985
v -3174.970483 110.617314 2179.341985
v -3168.864526 107.613118 2172.851414
v -3174.970483 110.617314 2172.851414
v -3165.991479 117.652562 2178.729924
v -3170.600854 120.510441 2178.729924
v -3165.991479 117.652562 2173.463414
v -3170.600854 120.510441 2173.463414
v -3162.622338 126.110394 2177.929967
v -3165.793236 128.464543 2177.929967
v -3162.622338 126.110394 2174.263371
v -3165.793236 128.464543 2174.263371
v -3159.973412 132.333211 2176.958623
v -3161.404565 133.536000 2176.958623
v -3159.973412 132.333211 2175.234776
v -3161.404565 133.536000 2175.234776
v -3158.754174 135.651951 2176.096715
v -3201.156029 62.715047 2164.552037
v -3205.777611 61.260182 2161.326329
v -3208.907738 90.366215 2158.983220
v -3204.308373 93.988423 2162.193578
v -3207.854027 93.988423 2167.273656
v -3212.453637 90.366215 2164.063298
v -3209.174828 61.260182 2166.193639
v -3204.553246 62.715047 2169.419347
v -3211.709496 99.499821 2157.335637
v -3207.673119 103.420903 2160.152989
v -3214.966332 99.499821 2162.001622
v -3210.929711 103.420903 2164.818974
v -3214.989037 107.531499 2155.700932
v -3211.997338 111.000325 2157.789159
v -3217.631615 107.531499 2159.486943
v -3214.639916 111.000325 2161.575169
v -3218.565697 114.091160 2154.059850
v -3216.543969 116.812092 2155.470860
v -3220.405297 114.091160 2156.695714
v -3218.383813 116.812092 2158.106694
v -3221.509301 118.880391 2153.043767
v -3220.610131 120.229375 2153.671330
v -3222.374291 118.880391 2154.282994
v -3221.475121 120.229375 2154.910588
v -3223.115014 121.476658 2152.844426
v -3166.819604 62.715047 2211.927647
v -3164.026147 58.721623 2216.415990
v -3158.529076 86.038258 2225.697575
v -3161.043725 92.184880 2221.670872
v -3155.508568 92.220326 2218.242101
v -3152.993432 86.073704 2222.268803
v -3158.722436 58.755589 2213.130833
v -3161.515893 62.749013 2208.642491
v -3155.480248 93.704320 2230.157140
v -3157.596459 99.840092 2226.773656
v -3150.395776 93.736882 2227.007909
v -3152.512475 99.872655 2223.624394
v -3152.109154 100.097859 2234.562688
v -3153.609154 105.207692 2232.168736
v -3147.984154 100.124287 2232.007359
v -3149.484154 105.234105 2229.613377
v -3148.640404 104.910359 2238.788701
v -3149.608178 108.739720 2237.247472
v -3145.768334 104.928746 2237.009648
v -3146.736108 108.758107 2235.468449
v -3145.716088 108.350011 2241.829106
v -3146.129662 110.191868 2241.171727
v -3144.365502 108.358662 2240.992680
v -3144.779076 110.200520 2240.335301
v -3143.969506 110.303319 2243.150853
v -3159.300561 67.212712 2156.839452
v -3154.776635 64.816716 2155.026433
v -3149.032494 89.979436 2152.000066
v -3153.350365 94.300252 2153.668889
v -3155.499291 94.003483 2148.512669
v -3151.181420 89.682652 2146.843816
v -3156.835229 64.532368 2150.086156
v -3161.359643 66.928364 2151.899174
v -3145.671166 97.468312 2150.125981
v -3149.396752 101.921223 2151.544286
v -3147.644311 97.195729 2145.390080
v -3151.370385 101.648640 2146.808354
v -3142.184350 103.887211 2147.954320
v -3144.898217 107.688649 2148.970494
v -3143.785912 103.666035 2144.111546
v -3146.499779 107.467473 2145.127721
v -3138.676537 108.939137 2145.653813
v -3140.477807 111.843510 2146.316930
v -3139.791283 108.785145 2142.978459
v -3141.593041 111.689534 2143.641576
v -3136.094018 112.578404 2143.634770
v -3136.883568 113.993779 2143.921025
v -3136.618432 112.506001 2142.376927
v -3137.407494 113.921391 2142.663213
v -3134.955346 114.574864 2142.360692
v -3170.851342 62.715047 2179.481999
v -3165.286889 57.526692 2183.891026
v -3156.722436 93.923527 2195.465886
v -3161.911889 101.976674 2191.683049
v -3156.181420 103.236455 2185.228642
v -3150.991967 95.183308 2189.011449
v -3159.796166 58.733723 2177.706944
v -3165.360619 63.922078 2173.297917
v -3151.691674 104.241429 2200.512975
v -3156.126733 112.295201 2197.399815
v -3146.428490 105.398533 2194.584721
v -3150.863549 113.452305 2191.471562
v -3146.178979 112.930653 2205.285802
v -3149.376244 119.647679 2203.134923
v -3141.908471 113.869542 2200.475560
v -3145.105736 120.586560 2198.324681
v -3140.496361 119.554463 2209.688359
v -3142.595971 124.594182 2208.340001
v -3137.522729 120.208119 2206.339421
v -3139.622826 125.247838 2204.991063
v -3135.859643 124.362301 2212.692784
v -3136.771264 126.788273 2212.131688
v -3134.461693 124.669621 2211.118260
v -3135.373803 127.095593 2210.557164
v -3133.272729 127.139882 2213.850377
v -3214.818871 62.715047 2178.708257
v -3219.584984 58.886616 2177.136998
v -3229.467797 84.817891 2174.091283
v -3225.202172 90.691807 2175.522740
v -3227.097436 90.576085 2181.420201
v -3231.363305 84.702168 2179.988744
v -3221.400902 58.775746 2182.787450
v -3216.634789 62.604176 2184.358708
v -3234.476342 92.075093 2172.821507
v -3230.896020 97.934498 2174.032567
v -3236.217309 91.968800 2178.238225
v -3232.636742 97.828206 2179.449284
v -3239.676537 98.114125 2171.775975
v -3237.146264 102.991032 2172.639378
v -3241.089135 98.027882 2176.171147
v -3238.559106 102.904790 2177.034550
v -3244.826684 102.645589 2170.904057
v -3243.199975 106.298772 2171.464513
v -3245.810326 102.585560 2173.964024
v -3244.183373 106.238728 2174.524449
v -3248.842797 105.874577 2170.541112
v -3248.149682 107.631123 2170.781926
v -3249.305199 105.846348 2171.979741
v -3248.612084 107.602894 2172.220586
v -3250.935570 107.703313 2170.681035
v -3225.084252 63.427144 2208.497655
v -3229.580590 59.833272 2212.315953
v -3235.728051 90.215871 2220.015538
v -3231.464867 96.165028 2216.587956
v -3226.790551 95.422185 2221.725621
v -3231.053734 89.473042 2225.153203
v -3225.102074 59.121541 2217.238408
v -3220.605736 62.715413 2213.420110
v -3239.093285 98.997883 2224.128514
v -3235.424340 105.028706 2221.247685
v -3234.800072 98.315602 2228.847356
v -3231.130883 104.346409 2225.966527
v -3242.453393 106.406621 2228.565739
v -3239.788598 111.490437 2226.526830
v -3238.969750 105.853001 2232.394627
v -3236.304955 110.936818 2230.355748
v -3245.749291 112.101475 2233.065709
v -3243.985375 115.947987 2231.752660
v -3243.323998 111.716038 2235.731419
v -3241.560082 115.562558 2234.418370
v -3248.038109 116.158635 2236.754247
v -3247.267113 118.020894 2236.194035
v -3246.897729 115.977429 2238.007542
v -3246.126733 117.839688 2237.447331
v -3248.898217 118.391499 2238.858403
v -3135.277123 62.715047 2167.443394
v -3131.024682 58.342152 2167.455968
v -3119.206811 80.322270 2167.681279
v -3122.798608 86.480244 2167.675786
v -3122.769799 86.502782 2161.946629
v -3119.177514 80.344807 2161.952122
v -3130.996850 58.363759 2161.966740
v -3135.249291 62.736653 2161.954198
v -3113.823998 86.089894 2167.486974
v -3116.757592 92.110570 2167.484502
v -3113.797631 86.110600 2162.224828
v -3116.731225 92.131276 2162.222386
v -3108.445092 90.727437 2167.027592
v -3110.453881 95.657185 2167.027592
v -3108.423608 90.744252 2162.757878
v -3110.432397 95.673985 2162.757848
v -3103.293725 94.004216 2166.411931
v -3104.540307 97.648381 2166.413121
v -3103.279076 94.015919 2163.439305
v -3104.525170 97.660069 2163.440495
v -3099.391381 96.303273 2165.648961
v -3099.905053 98.039372 2165.649937
v -3099.384545 96.308781 2164.251378
v -3099.897729 98.044881 2164.252354
v -3097.434838 97.659016 2164.962865
vt 0.756109 0.836782
vt 0.768704 0.836331
vt 0.771458 0.900562
vt 0.758394 0.900466
vt 0.745361 0.900638
vt 0.732343 0.901171
vt 0.730880 0.837573
vt 0.743475 0.837191
vt 0.730527 0.825048
vt 0.743074 0.824669
vt 0.718345 0.837883
vt 0.719328 0.901985
vt 0.769765 0.923688
vt 0.757870 0.922523
vt 0.734033 0.923103
vt 0.722179 0.924867
vt 0.745944 0.922326
vt 0.765415 0.944605
vt 0.756143 0.942868
vt 0.736890 0.943302
vt 0.727371 0.945540
vt 0.746343 0.942421
vt 0.759895 0.962697
vt 0.753493 0.960663
vt 0.740126 0.960913
vt 0.733744 0.963186
vt 0.746807 0.960057
vt 0.752878 0.975030
vt 0.750141 0.973563
vt 0.743947 0.973661
vt 0.741168 0.975272
vt 0.747053 0.973089
vt 0.747145 0.980062
vt 0.380854 0.865445
vt 0.391120 0.865077
vt 0.393364 0.917427
vt 0.382717 0.917349
vt 0.372094 0.917489
vt 0.361484 0.917923
vt 0.360292 0.866089
vt 0.370557 0.865777
vt 0.360004 0.855881
vt 0.370231 0.855572
vt 0.350076 0.866342
vt 0.350876 0.918586
vt 0.391984 0.936275
vt 0.382290 0.935325
vt 0.362862 0.935798
vt 0.353200 0.937236
vt 0.372570 0.935165
vt 0.388439 0.953323
vt 0.380882 0.951907
vt 0.365190 0.952260
vt 0.357432 0.954085
vt 0.372895 0.951543
vt 0.383940 0.968068
vt 0.378722 0.966410
vt 0.367828 0.966614
vt 0.362626 0.968467
vt 0.373272 0.965917
vt 0.378221 0.978120
vt 0.375990 0.976924
vt 0.370942 0.977004
vt 0.368677 0.978317
vt 0.373473 0.976538
vt 0.373549 0.982221
vt 0.645969 0.843268
vt 0.658254 0.842827
vt 0.660939 0.905475
vt 0.648198 0.905382
vt 0.635486 0.905550
vt 0.622789 0.906070
vt 0.621362 0.844039
vt 0.633646 0.843666
vt 0.621018 0.831822
vt 0.633256 0.831453
vt 0.609136 0.844342
vt 0.610094 0.906863
vt 0.659288 0.928031
vt 0.647687 0.926895
vt 0.624438 0.927461
vt 0.612875 0.929182
vt 0.636055 0.926703
vt 0.655046 0.948434
vt 0.646003 0.946739
vt 0.627224 0.947162
vt 0.617940 0.949346
vt 0.636444 0.946303
vt 0.649662 0.966079
vt 0.643418 0.964095
vt 0.630380 0.964339
vt 0.624156 0.966556
vt 0.636896 0.963504
vt 0.642818 0.978109
vt 0.640149 0.976677
vt 0.634107 0.976773
vt 0.631396 0.978345
vt 0.637137 0.976215
vt 0.637227 0.983016
vt 0.825368 0.826076
vt 0.839444 0.825571
vt 0.842520 0.897347
vt 0.827922 0.897240
vt 0.813358 0.897433
vt 0.798811 0.898028
vt 0.797176 0.826959
vt 0.811250 0.826532
vt 0.796781 0.812963
vt 0.810803 0.812539
vt 0.783168 0.827306
vt 0.784266 0.898937
vt 0.840628 0.923189
vt 0.827337 0.921888
vt 0.800700 0.922535
vt 0.787453 0.924507
vt 0.814010 0.921668
vt 0.835767 0.946564
vt 0.825407 0.944623
vt 0.803892 0.945107
vt 0.793255 0.947609
vt 0.814456 0.944124
vt 0.829599 0.966781
vt 0.822445 0.964508
vt 0.807508 0.964788
vt 0.800377 0.967327
vt 0.814973 0.963831
vt 0.821758 0.980563
vt 0.818700 0.978923
vt 0.811778 0.979033
vt 0.808672 0.980833
vt 0.815249 0.978393
vt 0.815352 0.986185
vt 0.893897 0.818474
vt 0.908857 0.817937
vt 0.912127 0.894222
vt 0.896612 0.894109
vt 0.881133 0.894313
vt 0.865672 0.894947
vt 0.863935 0.819413
vt 0.878893 0.818959
vt 0.863515 0.804537
vt 0.878417 0.804087
vt 0.849047 0.819781
vt 0.850214 0.895912
vt 0.910116 0.921688
vt 0.895990 0.920305
vt 0.867679 0.920993
vt 0.853600 0.923089
vt 0.881826 0.920071
vt 0.904950 0.946531
vt 0.893939 0.944468
vt 0.871072 0.944983
vt 0.859767 0.947642
vt 0.882299 0.943938
vt 0.898394 0.968018
vt 0.890791 0.965602
vt 0.874915 0.965900
vt 0.867336 0.968599
vt 0.882849 0.964883
vt 0.890061 0.982666
vt 0.886810 0.980923
vt 0.879454 0.981040
vt 0.876152 0.982954
vt 0.883142 0.980360
vt 0.883252 0.988642
vt 0.700233 0.838844
vt 0.712910 0.838390
vt 0.715680 0.903031
vt 0.702534 0.902935
vt 0.689417 0.903109
vt 0.676316 0.903645
vt 0.674844 0.839640
vt 0.687519 0.839255
vt 0.674488 0.827035
vt 0.687116 0.826653
vt 0.662228 0.839952
vt 0.663217 0.904463
vt 0.713977 0.926305
vt 0.702006 0.925133
vt 0.678017 0.925716
vt 0.666087 0.927492
vt 0.690004 0.924935
vt 0.709599 0.947356
vt 0.700268 0.945608
vt 0.680892 0.946044
vt 0.671312 0.948298
vt 0.690406 0.945158
vt 0.704044 0.965564
vt 0.697601 0.963516
vt 0.684149 0.963769
vt 0.677726 0.966056
vt 0.690872 0.962907
vt 0.696982 0.977976
vt 0.694228 0.976499
vt 0.687994 0.976598
vt 0.685197 0.978220
vt 0.691120 0.976022
vt 0.691213 0.983039
vt 0.432245 0.859103
vt 0.443298 0.858707
vt 0.445714 0.915071
vt 0.434251 0.914987
vt 0.422814 0.915138
vt 0.411390 0.915606
vt 0.410107 0.859797
vt 0.421159 0.859462
vt 0.409797 0.848806
vt 0.420807 0.848473
vt 0.399106 0.860069
vt 0.399969 0.916320
vt 0.444228 0.935365
vt 0.433791 0.934342
vt 0.412873 0.934851
vt 0.402471 0.936400
vt 0.423326 0.934170
vt 0.440412 0.953721
vt 0.432276 0.952196
vt 0.415380 0.952577
vt 0.407027 0.954541
vt 0.423676 0.951804
vt 0.435567 0.969596
vt 0.429950 0.967811
vt 0.418220 0.968031
vt 0.412620 0.970026
vt 0.424082 0.967280
vt 0.429410 0.980419
vt 0.427009 0.979131
vt 0.421573 0.979218
vt 0.419134 0.980631
vt 0.424299 0.978715
vt 0.424380 0.984834
vt 0.483299 0.854823
vt 0.494743 0.854412
vt 0.497244 0.912770
vt 0.485375 0.912683
vt 0.473534 0.912839
vt 0.461707 0.913323
vt 0.460378 0.855541
vt 0.471820 0.855193
vt 0.460057 0.844161
vt 0.471457 0.843817
vt 0.448988 0.855823
vt 0.449881 0.914062
vt 0.495706 0.933781
vt 0.484900 0.932722
vt 0.463242 0.933249
vt 0.452472 0.934852
vt 0.474064 0.932544
vt 0.491754 0.952786
vt 0.483330 0.951207
vt 0.465838 0.951601
vt 0.457190 0.953635
vt 0.474427 0.950801
vt 0.486739 0.969223
vt 0.480923 0.967375
vt 0.468778 0.967602
vt 0.462980 0.969667
vt 0.474847 0.966824
vt 0.480364 0.980428
vt 0.477877 0.979095
vt 0.472249 0.979185
vt 0.469724 0.980648
vt 0.475072 0.978665
vt 0.475155 0.985000
vt 0.287351 0.871448
vt 0.297257 0.871093
vt 0.299423 0.921607
vt 0.289149 0.921532
vt 0.278899 0.921667
vt 0.268661 0.922087
vt 0.267511 0.872070
vt 0.277416 0.871769
vt 0.267233 0.862219
vt 0.277100 0.861921
vt 0.257652 0.872314
vt 0.258425 0.922726
vt 0.298091 0.939794
vt 0.288737 0.938878
vt 0.269990 0.939334
vt 0.260667 0.940722
vt 0.279358 0.938724
vt 0.294670 0.956245
vt 0.287379 0.954879
vt 0.272237 0.955220
vt 0.264751 0.956981
vt 0.279671 0.954528
vt 0.290329 0.970474
vt 0.285294 0.968874
vt 0.274782 0.969071
vt 0.269763 0.970858
vt 0.280036 0.968397
vt 0.284811 0.980173
vt 0.282658 0.979019
vt 0.277787 0.979097
vt 0.275601 0.980363
vt 0.280230 0.978646
vt 0.280302 0.984130
vt 0.967613 0.813661
vt 0.982872 0.813114
vt 0.986207 0.890925
vt 0.970381 0.890809
vt 0.954593 0.891018
vt 0.938823 0.891663
vt 0.937051 0.814619
vt 0.952308 0.814155
vt 0.936623 0.799445
vt 0.951822 0.798986
vt 0.921865 0.814995
vt 0.923055 0.892649
vt 0.984156 0.918940
vt 0.969747 0.917529
vt 0.940870 0.918231
vt 0.926509 0.920369
vt 0.955299 0.917291
vt 0.978886 0.944280
vt 0.967655 0.942176
vt 0.944330 0.942701
vt 0.932800 0.945413
vt 0.955783 0.941635
vt 0.972199 0.966197
vt 0.964444 0.963733
vt 0.948251 0.964036
vt 0.940520 0.966789
vt 0.956344 0.962999
vt 0.963699 0.981138
vt 0.960384 0.979360
vt 0.952880 0.979480
vt 0.949513 0.981431
vt 0.956643 0.978786
vt 0.956754 0.987233
vt 0.535627 0.855385
vt 0.546512 0.854995
vt 0.548891 0.910504
vt 0.537602 0.910421
vt 0.526339 0.910570
vt 0.515088 0.911031
vt 0.513824 0.856068
vt 0.524708 0.855738
vt 0.513519 0.845244
vt 0.524362 0.844916
vt 0.502991 0.856336
vt 0.503840 0.911734
vt 0.547428 0.930489
vt 0.537149 0.929483
vt 0.516549 0.929984
vt 0.506304 0.931509
vt 0.526843 0.929313
vt 0.543669 0.948567
vt 0.535657 0.947066
vt 0.519018 0.947440
vt 0.510792 0.949375
vt 0.527187 0.946680
vt 0.538899 0.964202
vt 0.533367 0.962444
vt 0.521814 0.962661
vt 0.516299 0.964625
vt 0.527588 0.961921
vt 0.532835 0.974861
vt 0.530470 0.973593
vt 0.525117 0.973678
vt 0.522714 0.975070
vt 0.527801 0.973183
vt 0.527881 0.979209
vt 0.589158 0.845725
vt 0.601455 0.845284
vt 0.604143 0.907993
vt 0.591389 0.907900
vt 0.578665 0.908068
vt 0.565956 0.908588
vt 0.564528 0.846496
vt 0.576824 0.846123
vt 0.564183 0.834268
vt 0.576433 0.833898
vt 0.552289 0.846799
vt 0.553248 0.909382
vt 0.602491 0.930571
vt 0.590878 0.929434
vt 0.567606 0.930000
vt 0.556032 0.931722
vt 0.579235 0.929242
vt 0.598244 0.950993
vt 0.589192 0.949297
vt 0.570395 0.949720
vt 0.561101 0.951906
vt 0.579624 0.948861
vt 0.592854 0.968656
vt 0.586605 0.966670
vt 0.573554 0.966915
vt 0.567324 0.969133
vt 0.580076 0.966079
vt 0.586004 0.980697
vt 0.583332 0.979264
vt 0.577285 0.979361
vt 0.574571 0.980933
vt 0.580317 0.978802
vt 0.580407 0.985609
vt 0.333170 0.868986
vt 0.343159 0.868628
vt 0.345343 0.919568
vt 0.334982 0.919492
vt 0.324646 0.919628
vt 0.314322 0.920051
vt 0.313162 0.869613
vt 0.323151 0.869310
vt 0.312882 0.859680
vt 0.322833 0.859379
vt 0.303221 0.869859
vt 0.304000 0.920696
vt 0.344000 0.937908
vt 0.334567 0.936984
vt 0.315663 0.937444
vt 0.306261 0.938843
vt 0.325109 0.936828
vt 0.340550 0.954497
vt 0.333197 0.953119
vt 0.317928 0.953463
vt 0.310379 0.955239
vt 0.325425 0.952765
vt 0.336172 0.968845
vt 0.331096 0.967232
vt 0.320495 0.967431
vt 0.315433 0.969233
vt 0.325793 0.966752
vt 0.330608 0.978626
vt 0.328438 0.977462
vt 0.323525 0.977541
vt 0.321321 0.978818
vt 0.325988 0.977086
vt 0.326061 0.982616
vn -0.950307 0.208232 0.231422
vn 0.108701 -0.345203 0.932212
vn -0.085724 -0.321321 0.943082
vn -0.942587 0.327841 0.063632
vn -0.133190 0.402497 -0.905680
vn 0.927103 -0.227009 -0.298240
vn 0.958222 -0.276389 -0.073616
vn 0.005780 0.302528 -0.953123
vn -0.448829 -0.755452 -0.477331
vn -0.448829 -0.755452 -0.477331
vn -0.448829 -0.755452 -0.477331
vn -0.448829 -0.755452 -0.477331
vn -0.101181 -0.427927 0.898132
vn -0.822494 0.471932 0.317465
vn 0.890896 -0.332757 -0.309154
vn 0.114543 0.568744 -0.814500
vn -0.122764 -0.456803 0.881056
vn -0.725551 0.544594 0.420705
vn 0.872709 -0.358337 -0.331624
vn 0.228226 0.647088 -0.727455
vn -0.127996 -0.484960 0.865119
vn -0.622920 0.592559 0.510729
vn 0.859661 -0.383752 -0.337221
vn 0.334408 0.697380 -0.633902
vn -0.093556 -0.470148 0.877615
vn -0.493339 0.607101 0.622933
vn 0.877616 -0.369422 -0.305479
vn 0.470838 0.712778 -0.519864
vn 0.702992 0.336683 0.626456
vn 0.844080 0.238403 0.480305
vn 0.541865 -0.287888 -0.789622
vn 0.704522 -0.258145 -0.661068
vn 0.731622 0.342500 0.589426
vn -0.513149 0.342499 0.787003
vn -0.874585 -0.258165 -0.410429
vn -0.759728 -0.287914 -0.583026
vn -0.653886 0.238370 0.718062
vn 0.096704 -0.787069 0.609238
vn 0.096704 -0.787069 0.609238
vn 0.096704 -0.787069 0.609238
vn 0.096704 -0.787069 0.609238
vn 0.689857 -0.364353 -0.625576
vn 0.795626 0.504418 0.335474
vn -0.849685 -0.364321 -0.381190
vn -0.652619 0.504430 0.565367
vn 0.697418 -0.392069 -0.599909
vn 0.786301 0.584763 0.199456
vn -0.848924 -0.392044 -0.354443
vn -0.685861 0.584788 0.433148
vn 0.693932 -0.418205 -0.586142
vn 0.765559 0.639935 0.066349
vn -0.841356 -0.418147 -0.342451
vn -0.707363 0.639962 0.300144
vn 0.677394 -0.401417 -0.616444
vn 0.740599 0.663795 -0.104352
vn -0.834992 -0.401378 -0.376410
vn -0.736464 0.663849 0.130096
vn -0.145375 0.374508 -0.915756
vn -0.210225 0.163840 -0.963827
vn -0.963606 -0.145161 0.224481
vn -0.988620 -0.142286 0.048836
vn -0.085736 0.237607 -0.967570
vn 0.943021 0.197373 -0.267870
vn 0.294391 -0.191004 0.936403
vn 0.146033 -0.184222 0.971976
vn 0.984504 0.116364 -0.131193
vn 0.177359 -0.918067 -0.354538
vn 0.177359 -0.918067 -0.354538
vn 0.177359 -0.918067 -0.354538
vn 0.177359 -0.918067 -0.354538
vn -0.967763 -0.246262 0.052828
vn -0.250227 0.431469 -0.866730
vn 0.280618 -0.295282 0.913270
vn 0.922433 0.381371 -0.060618
vn -0.960673 -0.275562 0.034244
vn -0.313882 0.531880 -0.786499
vn 0.291891 -0.326150 0.899125
vn 0.877359 0.478730 0.032529
vn -0.953999 -0.298516 0.027817
vn -0.373700 0.612498 -0.696559
vn 0.292597 -0.351255 0.889386
vn 0.821196 0.557286 0.122756
vn -0.960552 -0.273458 0.050600
vn -0.459703 0.678625 -0.572836
vn 0.273773 -0.326958 0.904515
vn 0.742645 0.622021 0.248131
vn -0.444373 0.564473 0.695631
vn -0.154520 0.138621 0.978217
vn 0.976470 -0.154413 0.150544
vn 0.937554 -0.157287 0.310246
vn -0.277898 0.213859 0.936502
vn -0.973635 0.207007 -0.095824
vn 0.067948 -0.165562 -0.983856
vn 0.226354 -0.161092 -0.960632
vn -0.964647 0.130566 -0.228929
vn -0.309023 -0.925453 0.219185
vn -0.309023 -0.925453 0.219185
vn -0.309023 -0.925453 0.219185
vn -0.309023 -0.925453 0.219185
vn 0.918436 -0.261157 0.297107
vn -0.083938 0.404871 0.910513
vn 0.073009 -0.269493 -0.960231
vn -0.877682 0.396350 -0.269409
vn 0.905014 -0.291245 0.310041
vn 0.005161 0.504779 0.863233
vn 0.056452 -0.299856 -0.952313
vn -0.801113 0.495742 -0.335348
vn 0.896212 -0.315047 0.312330
vn 0.093293 0.585587 0.805223
vn 0.051407 -0.324001 -0.944659
vn -0.715025 0.576212 -0.395878
vn 0.910686 -0.290074 0.294124
vn 0.217586 0.653086 0.725352
vn 0.073803 -0.299174 -0.951340
vn -0.595124 0.643445 -0.481462
vn 0.676104 0.574954 -0.460773
vn -0.010413 -0.007627 -0.999917
vn -0.999001 -0.004173 0.044493
vn -0.998929 -0.031907 -0.033503
vn 0.057631 0.046430 -0.997258
vn 0.988686 0.046426 -0.142634
vn 0.118740 -0.031912 0.992412
vn 0.041028 -0.004176 0.999149
vn 0.997150 -0.007630 -0.075059
vn 0.003594 -0.999986 -0.003913
vn 0.003594 -0.999986 -0.003913
vn 0.003594 -0.999986 -0.003913
vn 0.003594 -0.999986 -0.003913
vn -0.991352 -0.130918 -0.009032
vn -0.049269 0.255063 -0.965668
vn 0.093725 -0.130921 0.986953
vn 0.966347 0.255060 -0.033439
vn -0.986442 -0.163501 -0.014121
vn -0.093823 0.364422 -0.926496
vn 0.098391 -0.163477 0.981628
vn 0.931114 0.364448 0.014281
vn -0.982277 -0.187023 -0.012422
vn -0.139552 0.458697 -0.877566
vn 0.096354 -0.186984 0.977626
vn 0.886268 0.458728 0.064007
vn -0.987205 -0.159456 -0.000713
vn -0.210701 0.556211 -0.803887
vn 0.085103 -0.159490 0.983525
vn 0.818970 0.556194 0.141197
vn -0.416811 0.787283 0.454372
vn -0.729578 -0.007638 0.683855
vn 0.708314 -0.004177 0.705885
vn 0.650808 -0.031905 0.758572
vn -0.773640 0.046427 0.631923
vn -0.773641 0.046427 -0.631921
vn 0.650805 -0.031906 -0.758574
vn 0.708311 -0.004177 -0.705888
vn -0.729580 -0.007638 -0.683852
vn -0.005314 -0.999986 0.000000
vn -0.005314 -0.999986 0.000000
vn -0.005314 -0.999986 0.000000
vn -0.005314 -0.999986 0.000000
vn 0.663715 -0.130905 0.736442
vn -0.678092 0.255082 0.689293
vn 0.663716 -0.130907 -0.736440
vn -0.678093 0.255080 -0.689293
vn 0.656645 -0.163488 0.736267
vn -0.619116 0.364432 0.695618
vn 0.656644 -0.163491 -0.736267
vn -0.619116 0.364429 -0.695620
vn 0.655059 -0.187013 0.732068
vn -0.552150 0.458692 0.696228
vn 0.655058 -0.187010 -0.732070
vn -0.552149 0.458693 -0.696227
vn 0.666993 -0.159490 0.727793
vn -0.449743 0.556130 0.698893
vn 0.667001 -0.159476 -0.727789
vn -0.449732 0.556143 -0.698889
vn 0.616859 0.787073 -0.000005
vn 0.979263 0.084734 -0.184022
vn -0.204626 -0.100284 -0.973690
vn -0.071802 -0.115411 -0.990719
vn 0.985990 0.150375 -0.072183
vn 0.272253 0.150378 0.950402
vn -0.954712 -0.115409 0.274238
vn -0.984528 -0.100283 0.143696
vn 0.164955 0.084734 0.982655
vn 0.204948 -0.968263 0.143047
vn 0.204948 -0.968263 0.143047
vn 0.204948 -0.968263 0.143047
vn 0.204948 -0.968263 0.143047
vn -0.084669 -0.217570 -0.972365
vn 0.910790 0.349090 -0.220450
vn -0.941921 -0.217562 0.255834
vn 0.107152 0.349096 0.930941
vn -0.071705 -0.248733 -0.965914
vn 0.847048 0.453706 -0.276878
vn -0.931391 -0.248748 0.265774
vn 0.032193 0.453688 0.890579
vn -0.068331 -0.272320 -0.959778
vn 0.773319 0.541288 -0.330129
vn -0.924460 -0.272351 0.266832
vn -0.043200 0.541270 0.839738
vn -0.086161 -0.245697 -0.965510
vn 0.667421 0.622840 -0.408190
vn -0.935994 -0.245697 0.252088
vn -0.152992 0.622835 0.767249
vn -0.617583 0.657845 -0.431082
vn -0.965945 0.229010 -0.120434
vn -0.192002 -0.280746 0.940381
vn -0.388746 -0.254214 0.885580
vn -0.905504 0.331551 -0.264832
vn 0.164199 0.335482 -0.927626
vn 0.967429 -0.249273 0.044083
vn 0.928677 -0.277094 0.246531
vn 0.319178 0.233937 -0.918368
vn -0.313700 -0.797918 -0.514703
vn -0.313700 -0.797918 -0.514702
vn -0.313700 -0.797918 -0.514703
vn -0.313700 -0.797918 -0.514702
vn -0.387739 -0.360351 0.848414
vn -0.868658 0.495326 -0.009309
vn 0.934291 -0.355377 0.028421
vn 0.374970 0.500411 -0.780376
vn -0.404244 -0.388333 0.828121
vn -0.809024 0.577262 0.110673
vn 0.923668 -0.383167 0.004400
vn 0.455358 0.582678 -0.673153
vn -0.406289 -0.414388 0.814378
vn -0.739718 0.634546 0.223984
vn 0.912510 -0.409037 -0.003721
vn 0.525758 0.640090 -0.560235
vn -0.379946 -0.396818 0.835570
vn -0.651556 0.661795 0.370814
vn 0.919705 -0.391515 0.029319
vn 0.618010 0.667378 -0.415536
vn 0.483752 0.388694 0.784156
vn -0.337444 0.182101 0.923564
vn 0.925682 -0.170599 0.337653
vn 0.846951 -0.162167 0.506336
vn -0.449812 0.260568 0.854268
vn -0.928974 0.223322 -0.295186
vn 0.254211 -0.207712 -0.944581
vn 0.408603 -0.206366 -0.889076
vn -0.888560 0.137466 -0.437681
vn -0.388979 -0.896122 0.213686
vn -0.388979 -0.896122 0.213686
vn -0.388979 -0.896122 0.213686
vn -0.388979 -0.896122 0.213686
vn 0.827952 -0.266750 0.493295
vn -0.243672 0.450070 0.859105
vn 0.249327 -0.312620 -0.916573
vn -0.788695 0.403181 -0.464118
vn 0.810531 -0.295681 0.505581
vn -0.140040 0.547693 0.824876
vn 0.230446 -0.343064 -0.910605
vn -0.694086 0.497908 -0.519935
vn 0.800589 -0.319037 0.507220
vn -0.035326 0.624416 0.780293
vn 0.223705 -0.368288 -0.902397
vn -0.592256 0.572838 -0.566648
vn 0.820017 -0.295288 0.490282
vn 0.109705 0.683429 0.721727
vn 0.249666 -0.345006 -0.904786
vn -0.452405 0.630664 -0.630549
vn 0.775181 0.528838 -0.345579
vn -0.967887 0.160012 0.193882
vn 0.095287 -0.321865 0.941979
vn -0.080282 -0.312590 0.946490
vn -0.961317 0.274498 0.022826
vn -0.133698 0.379593 -0.915442
vn 0.948225 -0.180778 -0.261131
vn 0.973939 -0.223893 -0.036265
vn -0.003640 0.291068 -0.956696
vn -0.364478 -0.798311 -0.479433
vn -0.364478 -0.798311 -0.479433
vn -0.364478 -0.798311 -0.479433
vn -0.364478 -0.798311 -0.479433
vn -0.087609 -0.419387 0.903570
vn -0.863202 0.424861 0.272720
vn 0.919846 -0.286483 -0.267976
vn 0.088315 0.560342 -0.823539
vn -0.105730 -0.449734 0.886882
vn -0.778489 0.503797 0.374357
vn 0.904476 -0.312220 -0.290588
vn 0.190304 0.647576 -0.737855
vn -0.109181 -0.477781 0.871668
vn -0.686074 0.560386 0.463971
vn 0.893846 -0.335805 -0.297111
vn 0.288197 0.708223 -0.644486
vn -0.078122 -0.459768 0.884596
vn -0.564873 0.588907 0.578020
vn 0.909549 -0.317881 -0.267716
vn 0.418925 0.738729 -0.527997
vn 0.655852 0.397016 0.642056
vn 0.813933 0.241807 -0.528244
vn -0.462185 -0.275054 -0.843048
vn -0.272418 -0.244937 -0.930481
vn 0.858709 0.342709 -0.381010
vn 0.472995 0.329146 0.817275
vn -0.765017 -0.261986 0.588313
vn -0.864600 -0.287631 0.411990
vn 0.345482 0.224815 0.911098
vn 0.582008 -0.794904 0.171447
vn 0.582008 -0.794904 0.171447
vn 0.582008 -0.794904 0.171447
vn 0.582008 -0.794904 0.171447
vn -0.248945 -0.351001 -0.902677
vn 0.663818 0.508404 -0.548517
vn -0.728179 -0.368204 0.578084
vn 0.213898 0.490859 0.844574
vn -0.222760 -0.378543 -0.898378
vn 0.539433 0.590569 -0.600200
vn -0.704336 -0.396347 0.588915
vn 0.082364 0.571944 0.816147
vn -0.212088 -0.404241 -0.889723
vn 0.411936 0.647590 -0.641042
vn -0.690296 -0.422621 0.587267
vn -0.044611 0.628468 0.776555
vn -0.246040 -0.386900 -0.888692
vn 0.248526 0.674045 -0.695628
vn -0.717375 -0.405259 0.566691
vn -0.208328 0.654681 0.726630
vn -0.880383 0.384889 -0.277104
vn 0.000829 0.239955 -0.970784
vn -0.980664 -0.195349 -0.011692
vn -0.960419 -0.169496 -0.221058
vn 0.130622 0.323134 -0.937295
vn 0.968844 0.247282 -0.013890
vn 0.083706 -0.263616 0.960989
vn -0.085692 -0.266992 0.959881
vn 0.977855 0.146966 0.149000
vn 0.323987 -0.848950 -0.417512
vn 0.323987 -0.848950 -0.417512
vn 0.323987 -0.848950 -0.417512
vn 0.323987 -0.848950 -0.417512
vn -0.935608 -0.274831 -0.221596
vn -0.076705 0.509372 -0.857121
vn 0.084394 -0.369670 0.925323
vn 0.884625 0.412517 0.217415
vn -0.922015 -0.302085 -0.242142
vn -0.169918 0.602628 -0.779722
vn 0.101067 -0.400137 0.910866
vn 0.808073 0.499734 0.311902
vn -0.912456 -0.325253 -0.248265
vn -0.260176 0.672226 -0.693123
vn 0.104335 -0.426928 0.898247
vn 0.722456 0.565909 0.397246
vn -0.926440 -0.303842 -0.222236
vn -0.383968 0.717698 -0.580929
vn 0.077062 -0.406113 0.910568
vn 0.607204 0.609401 0.509837
vn -0.629654 0.463495 0.623465
vn -0.566487 0.289777 0.771441
vn 0.655392 -0.359062 0.664482
vn 0.494904 -0.309211 0.812070
vn -0.651826 0.410566 0.637620
vn -0.645554 0.413557 -0.642052
vn 0.502215 -0.305421 -0.809011
vn 0.662136 -0.356334 -0.659244
vn -0.559812 0.293588 -0.774866
vn -0.716847 -0.697201 -0.006378
vn -0.716847 -0.697201 -0.006378
vn -0.716847 -0.697201 -0.006378
vn -0.716847 -0.697201 -0.006378
vn 0.446536 -0.414722 0.792850
vn -0.377939 0.550019 0.744743
vn 0.453887 -0.410880 -0.790673
vn -0.370793 0.553912 -0.745449
vn 0.415679 -0.440930 0.795482
vn -0.224784 0.614131 0.756515
vn 0.423042 -0.436959 -0.793790
vn -0.217388 0.618227 -0.755340
vn 0.399811 -0.469131 0.787443
vn -0.078787 0.649827 0.755988
vn 0.407150 -0.465076 -0.786087
vn -0.071179 0.653990 -0.753147
vn 0.437272 -0.459630 0.773003
vn 0.097320 0.646123 0.757004
vn 0.444447 -0.455619 -0.771283
vn 0.105209 0.650265 -0.752387
vn 0.965834 0.259098 0.005832
s 1
g SM_GrassBig
usemtl lambert11SG
f 1/1/1 2/2/2 3/3/3 4/4/4
f 5/5/5 6/6/6 7/7/7 8/8/8
s off
f 8/8/9 7/7/10 2/9/11 1/10/12
s 1
f 2/11/2 7/7/7 6/6/6 3/12/3
f 8/8/8 1/1/1 4/4/4 5/5/5
f 4/4/4 3/3/3 9/13/13 10/14/14
f 3/12/3 6/6/6 11/15/15 9/16/13
f 6/6/6 5/5/5 12/17/16 11/15/15
f 5/5/5 4/4/4 10/14/14 12/17/16
f 10/14/14 9/13/13 13/18/17 14/19/18
f 9/16/13 11/15/15 15/20/19 13/21/17
f 11/15/15 12/17/16 16/22/20 15/20/19
f 12/17/16 10/14/14 14/19/18 16/22/20
f 14/19/18 13/18/17 17/23/21 18/24/22
f 13/21/17 15/20/19 19/25/23 17/26/21
f 15/20/19 16/22/20 20/27/24 19/25/23
f 16/22/20 14/19/18 18/24/22 20/27/24
f 18/24/22 17/23/21 21/28/25 22/29/26
f 17/26/21 19/25/23 23/30/27 21/31/25
f 19/25/23 20/27/24 24/32/28 23/30/27
f 20/27/24 18/24/22 22/29/26 24/32/28
f 22/29/26 21/28/25 25/33/29
f 21/31/25 23/30/27 25/33/29
f 23/30/27 24/32/28 25/33/29
f 24/32/28 22/29/26 25/33/29
s 3
f 26/34/30 27/35/31 28/36/32 29/37/33
f 30/38/34 31/39/35 32/40/36 33/41/37
s off
f 33/41/38 32/40/39 27/42/40 26/43/41
s 3
f 27/44/31 32/40/36 31/39/35 28/45/32
f 33/41/37 26/34/30 29/37/33 30/38/34
f 29/37/33 28/36/32 34/46/42 35/47/43
f 28/45/32 31/39/35 36/48/44 34/49/42
f 31/39/35 30/38/34 37/50/45 36/48/44
f 30/38/34 29/37/33 35/47/43 37/50/45
f 35/47/43 34/46/42 38/51/46 39/52/47
f 34/49/42 36/48/44 40/53/48 38/54/46
f 36/48/44 37/50/45 41/55/49 40/53/48
f 37/50/45 35/47/43 39/52/47 41/55/49
f 39/52/47 38/51/46 42/56/50 43/57/51
f 38/54/46 40/53/48 44/58/52 42/59/50
f 40/53/48 41/55/49 45/60/53 44/58/52
f 41/55/49 39/52/47 43/57/51 45/60/53
f 43/57/51 42/56/50 46/61/54 47/62/55
f 42/59/50 44/58/52 48/63/56 46/64/54
f 44/58/52 45/60/53 49/65/57 48/63/56
f 45/60/53 43/57/51 47/62/55 49/65/57
f 47/62/55 46/61/54 50/66/58
f 46/64/54 48/63/56 50/66/58
f 48/63/56 49/65/57 50/66/58
f 49/65/57 47/62/55 50/66/58
s 5
f 51/67/59 52/68/60 53/69/61 54/70/62
f 55/71/63 56/72/64 57/73/65 58/74/66
s off
f 58/74/67 57/73/68 52/75/69 51/76/70
s 5
f 52/77/60 57/73/65 56/72/64 53/78/61
f 58/74/66 51/67/59 54/70/62 55/71/63
f 54/70/62 53/69/61 59/79/71 60/80/72
f 53/78/61 56/72/64 61/81/73 59/82/71
f 56/72/64 55/71/63 62/83/74 61/81/73
f 55/71/63 54/70/62 60/80/72 62/83/74
f 60/80/72 59/79/71 63/84/75 64/85/76
f 59/82/71 61/81/73 65/86/77 63/87/75
f 61/81/73 62/83/74 66/88/78 65/86/77
f 62/83/74 60/80/72 64/85/76 66/88/78
f 64/85/76 63/84/75 67/89/79 68/90/80
f 63/87/75 65/86/77 69/91/81 67/92/79
f 65/86/77 66/88/78 70/93/82 69/91/81
f 66/88/78 64/85/76 68/90/80 70/93/82
f 68/90/80 67/89/79 71/94/83 72/95/84
f 67/92/79 69/91/81 73/96/85 71/97/83
f 69/91/81 70/93/82 74/98/86 73/96/85
f 70/93/82 68/90/80 72/95/84 74/98/86
f 72/95/84 71/94/83 75/99/87
f 71/97/83 73/96/85 75/99/87
f 73/96/85 74/98/86 75/99/87
f 74/98/86 72/95/84 75/99/87
s 7
f 76/100/88 77/101/89 78/102/90 79/103/91
f 80/104/92 81/105/93 82/106/94 83/107/95
s off
f 83/107/96 82/106/97 77/108/98 76/109/99
s 7
f 77/110/89 82/106/94 81/105/93 78/111/90
f 83/107/95 76/100/88 79/103/91 80/104/92
f 79/103/91 78/102/90 84/112/100 85/113/101
f 78/111/90 81/105/93 86/114/102 84/115/100
f 81/105/93 80/104/92 87/116/103 86/114/102
f 80/104/92 79/103/91 85/113/101 87/116/103
f 85/113/101 84/112/100 88/117/104 89/118/105
f 84/115/100 86/114/102 90/119/106 88/120/104
f 86/114/102 87/116/103 91/121/107 90/119/106
f 87/116/103 85/113/101 89/118/105 91/121/107
f 89/118/105 88/117/104 92/122/108 93/123/109
f 88/120/104 90/119/106 94/124/110 92/125/108
f 90/119/106 91/121/107 95/126/111 94/124/110
f 91/121/107 89/118/105 93/123/109 95/126/111
f 93/123/109 92/122/108 96/127/112 97/128/113
f 92/125/108 94/124/110 98/129/114 96/130/112
f 94/124/110 95/126/111 99/131/115 98/129/114
f 95/126/111 93/123/109 97/128/113 99/131/115
f 97/128/113 96/127/112 100/132/116
f 96/130/112 98/129/114 100/132/116
f 98/129/114 99/131/115 100/132/116
f 99/131/115 97/128/113 100/132/116
s 9
f 101/133/117 102/134/118 103/135/119 104/136/120
f 105/137/121 106/138/122 107/139/123 108/140/124
s off
f 108/140/125 107/139/126 102/141/127 101/142/128
s 9
f 102/143/118 107/139/123 106/138/122 103/144/119
f 108/140/124 101/133/117 104/136/120 105/137/121
f 104/136/120 103/135/119 109/145/129 110/146/130
f 103/144/119 106/138/122 111/147/131 109/148/129
f 106/138/122 105/137/121 112/149/132 111/147/131
f 105/137/121 104/136/120 110/146/130 112/149/132
f 110/146/130 109/145/129 113/150/133 114/151/134
f 109/148/129 111/147/131 115/152/135 113/153/133
f 111/147/131 112/149/132 116/154/136 115/152/135
f 112/149/132 110/146/130 114/151/134 116/154/136
f 114/151/134 113/150/133 117/155/137 118/156/138
f 113/153/133 115/152/135 119/157/139 117/158/137
f 115/152/135 116/154/136 120/159/140 119/157/139
f 116/154/136 114/151/134 118/156/138 120/159/140
f 118/156/138 117/155/137 121/160/141 122/161/142
f 117/158/137 119/157/139 123/162/143 121/163/141
f 119/157/139 120/159/140 124/164/144 123/162/143
f 120/159/140 118/156/138 122/161/142 124/164/144
f 122/161/142 121/160/141 125/165/145
f 121/163/141 123/162/143 125/165/145
f 123/162/143 124/164/144 125/165/145
f 124/164/144 122/161/142 125/165/145
s 11
f 126/166/146 127/167/147 128/168/148 129/169/149
f 130/170/150 131/171/151 132/172/152 133/173/153
s off
f 133/173/154 132/172/155 127/174/156 126/175/157
s 11
f 127/176/147 132/172/152 131/171/151 128/177/148
f 133/173/153 126/166/146 129/169/149 130/170/150
f 129/169/149 128/168/148 134/178/158 135/179/159
f 128/177/148 131/171/151 136/180/160 134/181/158
f 131/171/151 130/170/150 137/182/161 136/180/160
f 130/170/150 129/169/149 135/179/159 137/182/161
f 135/179/159 134/178/158 138/183/162 139/184/163
f 134/181/158 136/180/160 140/185/164 138/186/162
f 136/180/160 137/182/161 141/187/165 140/185/164
f 137/182/161 135/179/159 139/184/163 141/187/165
f 139/184/163 138/183/162 142/188/166 143/189/167
f 138/186/162 140/185/164 144/190/168 142/191/166
f 140/185/164 141/187/165 145/192/169 144/190/168
f 141/187/165 139/184/163 143/189/167 145/192/169
f 143/189/167 142/188/166 146/193/170 147/194/171
f 142/191/166 144/190/168 148/195/172 146/196/170
f 144/190/168 145/192/169 149/197/173 148/195/172
f 145/192/169 143/189/167 147/194/171 149/197/173
f 147/194/171 146/193/170 150/198/174
f 146/196/170 148/195/172 150/198/174
f 148/195/172 149/197/173 150/198/174
f 149/197/173 147/194/171 150/198/174
s 13
f 151/199/175 152/200/176 153/201/177 154/202/178
f 155/203/179 156/204/180 157/205/181 158/206/182
s off
f 158/206/183 157/205/184 152/207/185 151/208/186
s 13
f 152/209/176 157/205/181 156/204/180 153/210/177
f 158/206/182 151/199/175 154/202/178 155/203/179
f 154/202/178 153/201/177 159/211/187 160/212/188
f 153/210/177 156/204/180 161/213/189 159/214/187
f 156/204/180 155/203/179 162/215/190 161/213/189
f 155/203/179 154/202/178 160/212/188 162/215/190
f 160/212/188 159/211/187 163/216/191 164/217/192
f 159/214/187 161/213/189 165/218/193 163/219/191
f 161/213/189 162/215/190 166/220/194 165/218/193
f 162/215/190 160/212/188 164/217/192 166/220/194
f 164/217/192 163/216/191 167/221/195 168/222/196
f 163/219/191 165/218/193 169/223/197 167/224/195
f 165/218/193 166/220/194 170/225/198 169/223/197
f 166/220/194 164/217/192 168/222/196 170/225/198
f 168/222/196 167/221/195 171/226/199 172/227/200
f 167/224/195 169/223/197 173/228/201 171/229/199
f 169/223/197 170/225/198 174/230/202 173/228/201
f 170/225/198 168/222/196 172/227/200 174/230/202
f 172/227/200 171/226/199 175/231/203
f 171/229/199 173/228/201 175/231/203
f 173/228/201 174/230/202 175/231/203
f 174/230/202 172/227/200 175/231/203
s 15
f 176/232/204 177/233/205 178/234/206 179/235/207
f 180/236/208 181/237/209 182/238/210 183/239/211
s off
f 183/239/212 182/238/213 177/240/214 176/241/215
s 15
f 177/242/205 182/238/210 181/237/209 178/243/206
f 183/239/211 176/232/204 179/235/207 180/236/208
f 179/235/207 178/234/206 184/244/216 185/245/217
f 178/243/206 181/237/209 186/246/218 184/247/216
f 181/237/209 180/236/208 187/248/219 186/246/218
f 180/236/208 179/235/207 185/245/217 187/248/219
f 185/245/217 184/244/216 188/249/220 189/250/221
f 184/247/216 186/246/218 190/251/222 188/252/220
f 186/246/218 187/248/219 191/253/223 190/251/222
f 187/248/219 185/245/217 189/250/221 191/253/223
f 189/250/221 188/249/220 192/254/224 193/255/225
f 188/252/220 190/251/222 194/256/226 192/257/224
f 190/251/222 191/253/223 195/258/227 194/256/226
f 191/253/223 189/250/221 193/255/225 195/258/227
f 193/255/225 192/254/224 196/259/228 197/260/229
f 192/257/224 194/256/226 198/261/230 196/262/228
f 194/256/226 195/258/227 199/263/231 198/261/230
f 195/258/227 193/255/225 197/260/229 199/263/231
f 197/260/229 196/259/228 200/264/232
f 196/262/228 198/261/230 200/264/232
f 198/261/230 199/263/231 200/264/232
f 199/263/231 197/260/229 200/264/232
s 17
f 201/265/233 202/266/234 203/267/235 204/268/236
f 205/269/237 206/270/238 207/271/239 208/272/240
s off
f 208/272/241 207/271/242 202/273/243 201/274/244
s 17
f 202/275/234 207/271/239 206/270/238 203/276/235
f 208/272/240 201/265/233 204/268/236 205/269/237
f 204/268/236 203/267/235 209/277/245 210/278/246
f 203/276/235 206/270/238 211/279/247 209/280/245
f 206/270/238 205/269/237 212/281/248 211/279/247
f 205/269/237 204/268/236 210/278/246 212/281/248
f 210/278/246 209/277/245 213/282/249 214/283/250
f 209/280/245 211/279/247 215/284/251 213/285/249
f 211/279/247 212/281/248 216/286/252 215/284/251
f 212/281/248 210/278/246 214/283/250 216/286/252
f 214/283/250 213/282/249 217/287/253 218/288/254
f 213/285/249 215/284/251 219/289/255 217/290/253
f 215/284/251 216/286/252 220/291/256 219/289/255
f 216/286/252 214/283/250 218/288/254 220/291/256
f 218/288/254 217/287/253 221/292/257 222/293/258
f 217/290/253 219/289/255 223/294/259 221/295/257
f 219/289/255 220/291/256 224/296/260 223/294/259
f 220/291/256 218/288/254 222/293/258 224/296/260
f 222/293/258 221/292/257 225/297/261
f 221/295/257 223/294/259 225/297/261
f 223/294/259 224/296/260 225/297/261
f 224/296/260 222/293/258 225/297/261
s 19
f 226/298/262 227/299/263 228/300/264 229/301/265
f 230/302/266 231/303/267 232/304/268 233/305/269
s off
f 233/305/270 232/304/271 227/306/272 226/307/273
s 19
f 227/308/263 232/304/268 231/303/267 228/309/264
f 233/305/269 226/298/262 229/301/265 230/302/266
f 229/301/265 228/300/264 234/310/274 235/311/275
f 228/309/264 231/303/267 236/312/276 234/313/274
f 231/303/267 230/302/266 237/314/277 236/312/276
f 230/302/266 229/301/265 235/311/275 237/314/277
f 235/311/275 234/310/274 238/315/278 239/316/279
f 234/313/274 236/312/276 240/317/280 238/318/278
f 236/312/276 237/314/277 241/319/281 240/317/280
f 237/314/277 235/311/275 239/316/279 241/319/281
f 239/316/279 238/315/278 242/320/282 243/321/283
f 238/318/278 240/317/280 244/322/284 242/323/282
f 240/317/280 241/319/281 245/324/285 244/322/284
f 241/319/281 239/316/279 243/321/283 245/324/285
f 243/321/283 242/320/282 246/325/286 247/326/287
f 242/323/282 244/322/284 248/327/288 246/328/286
f 244/322/284 245/324/285 249/329/289 248/327/288
f 245/324/285 243/321/283 247/326/287 249/329/289
f 247/326/287 246/325/286 250/330/290
f 246/328/286 248/327/288 250/330/290
f 248/327/288 249/329/289 250/330/290
f 249/329/289 247/326/287 250/330/290
s 21
f 251/331/291 252/332/292 253/333/293 254/334/294
f 255/335/295 256/336/296 257/337/297 258/338/298
s off
f 258/338/299 257/337/300 252/339/301 251/340/302
s 21
f 252/341/292 257/337/297 256/336/296 253/342/293
f 258/338/298 251/331/291 254/334/294 255/335/295
f 254/334/294 253/333/293 259/343/303 260/344/304
f 253/342/293 256/336/296 261/345/305 259/346/303
f 256/336/296 255/335/295 262/347/306 261/345/305
f 255/335/295 254/334/294 260/344/304 262/347/306
f 260/344/304 259/343/303 263/348/307 264/349/308
f 259/346/303 261/345/305 265/350/309 263/351/307
f 261/345/305 262/347/306 266/352/310 265/350/309
f 262/347/306 260/344/304 264/349/308 266/352/310
f 264/349/308 263/348/307 267/353/311 268/354/312
f 263/351/307 265/350/309 269/355/313 267/356/311
f 265/350/309 266/352/310 270/357/314 269/355/313
f 266/352/310 264/349/308 268/354/312 270/357/314
f 268/354/312 267/353/311 271/358/315 272/359/316
f 267/356/311 269/355/313 273/360/317 271/361/315
f 269/355/313 270/357/314 274/362/318 273/360/317
f 270/357/314 268/354/312 272/359/316 274/362/318
f 272/359/316 271/358/315 275/363/319
f 271/361/315 273/360/317 275/363/319
f 273/360/317 274/362/318 275/363/319
f 274/362/318 272/359/316 275/363/319
s 23
f 276/364/320 277/365/321 278/366/322 279/367/323
f 280/368/324 281/369/325 282/370/326 283/371/327
s off
f 283/371/328 282/370/329 277/372/330 276/373/331
s 23
f 277/374/321 282/370/326 281/369/325 278/375/322
f 283/371/327 276/364/320 279/367/323 280/368/324
f 279/367/323 278/366/322 284/376/332 285/377/333
f 278/375/322 281/369/325 286/378/334 284/379/332
f 281/369/325 280/368/324 287/380/335 286/378/334
f 280/368/324 279/367/323 285/377/333 287/380/335
f 285/377/333 284/376/332 288/381/336 289/382/337
f 284/379/332 286/378/334 290/383/338 288/384/336
f 286/378/334 287/380/335 291/385/339 290/383/338
f 287/380/335 285/377/333 289/382/337 291/385/339
f 289/382/337 288/381/336 292/386/340 293/387/341
f 288/384/336 290/383/338 294/388/342 292/389/340
f 290/383/338 291/385/339 295/390/343 294/388/342
f 291/385/339 289/382/337 293/387/341 295/390/343
f 293/387/341 292/386/340 296/391/344 297/392/345
f 292/389/340 294/388/342 298/393/346 296/394/344
f 294/388/342 295/390/343 299/395/347 298/393/346
f 295/390/343 293/387/341 297/392/345 299/395/347
f 297/392/345 296/391/344 300/396/348
f 296/394/344 298/393/346 300/396/348
f 298/393/346 299/395/347 300/396/348
f 299/395/347 297/392/345 300/396/348
s 25
f 301/397/349 302/398/350 303/399/351 304/400/352
f 305/401/353 306/402/354 307/403/355 308/404/356
s off
f 308/404/357 307/403/358 302/405/359 301/406/360
s 25
f 302/407/350 307/403/355 306/402/354 303/408/351
f 308/404/356 301/397/349 304/400/352 305/401/353
f 304/400/352 303/399/351 309/409/361 310/410/362
f 303/408/351 306/402/354 311/411/363 309/412/361
f 306/402/354 305/401/353 312/413/364 311/411/363
f 305/401/353 304/400/352 310/410/362 312/413/364
f 310/410/362 309/409/361 313/414/365 314/415/366
f 309/412/361 311/411/363 315/416/367 313/417/365
f 311/411/363 312/413/364 316/418/368 315/416/367
f 312/413/364 310/410/362 314/415/366 316/418/368
f 314/415/366 313/414/365 317/419/369 318/420/370
f 313/417/365 315/416/367 319/421/371 317/422/369
f 315/416/367 316/418/368 320/423/372 319/421/371
f 316/418/368 314/415/366 318/420/370 320/423/372
f 318/420/370 317/419/369 321/424/373 322/425/374
f 317/422/369 319/421/371 323/426/375 321/427/373
f 319/421/371 320/423/372 324/428/376 323/426/375
f 320/423/372 318/420/370 322/425/374 324/428/376
f 322/425/374 321/424/373 325/429/377
f 321/427/373 323/426/375 325/429/377
f 323/426/375 324/428/376 325/429/377
f 324/428/376 322/425/374 325/429/377
