# This file uses centimeters as units for non-parametric coordinates.

mtllib GrassSmall.mtl
g default
v -3342.930005 62.715047 2253.176160
v -3339.249097 60.982640 2260.204633
v -3337.679029 101.945988 2264.626264
v -3341.401685 106.714680 2257.592633
v -3333.703931 106.903371 2253.585523
v -3329.981275 102.134663 2260.619184
v -3331.873853 61.163426 2256.365339
v -3335.554761 62.895833 2249.336896
v -3335.520582 114.918324 2268.326642
v -3338.807935 120.142651 2262.140790
v -3328.450513 115.091618 2264.646192
v -3331.737623 120.315953 2258.460340
v -3332.730787 126.377110 2272.340558
v -3335.182691 131.037053 2267.745588
v -3326.993970 126.517735 2269.354230
v -3329.445875 131.177678 2264.759259
v -3329.536695 135.793088 2276.581159
v -3331.203687 139.469769 2273.469709
v -3325.542554 135.890988 2274.502057
v -3327.209546 139.567670 2271.390607
v -3326.673902 142.687153 2279.666852
v -3327.419019 144.516774 2278.280500
v -3324.795972 142.733189 2278.689374
v -3325.541334 144.562810 2277.303022
v -3324.881421 146.423001 2280.909772
v -3366.347242 62.715047 2238.246198
v -3370.968824 61.260182 2235.020490
v -3374.098951 90.366215 2232.677381
v -3369.499586 93.988423 2235.887738
v -3373.045240 93.988423 2240.967817
v -3377.644849 90.366215 2237.757459
v -3374.366041 61.260182 2239.887799
v -3369.744459 62.715047 2243.113508
v -3376.900709 99.499821 2231.029798
v -3372.864332 103.420903 2233.847150
v -3380.157544 99.499821 2235.695783
v -3376.120923 103.420903 2238.513135
v -3380.180250 107.531499 2229.395093
v -3377.188550 111.000325 2231.483320
v -3382.822828 107.531499 2233.181104
v -3379.831128 111.000325 2235.269330
v -3383.756910 114.091160 2227.754010
v -3381.735181 116.812092 2229.165021
v -3385.596509 114.091160 2230.389875
v -3383.575025 116.812092 2231.800855
v -3386.700513 118.880391 2226.737928
v -3385.801343 120.229375 2227.365491
v -3387.565503 118.880391 2227.977155
v -3386.666334 120.229375 2228.604749
v -3388.306226 121.476658 2226.538587
v -3342.929761 62.715047 2253.176191
v -3334.022046 62.667699 2253.176191
v -3333.944654 108.658345 2253.377759
v -3343.250562 112.028340 2253.377759
v -3343.250562 112.028340 2243.752729
v -3333.944654 108.658345 2243.752729
v -3334.022046 62.667699 2243.954267
v -3342.929761 62.715047 2243.954267
v -3330.842359 123.868085 2252.985456
v -3339.159498 127.959935 2252.985456
v -3330.842359 123.868085 2244.145032
v -3339.159498 127.959935 2244.145032
v -3326.929273 137.542226 2252.151807
v -3333.207837 141.434788 2252.151807
v -3326.929273 137.542226 2244.978589
v -3333.207837 141.434788 2244.978589
v -3322.340406 149.062153 2251.062207
v -3326.659253 152.268597 2251.062207
v -3322.340406 149.062153 2246.068189
v -3326.659253 152.268597 2246.068189
v -3318.732740 157.537892 2249.739209
v -3320.681714 159.176137 2249.739209
v -3318.732740 157.537892 2247.391248
v -3320.681714 159.176137 2247.391248
v -3317.071851 162.058156 2248.565229
v -3342.929761 62.715047 2253.176160
v -3350.568433 62.674031 2254.281232
v -3350.659742 102.522313 2254.117963
v -3342.679761 105.442219 2252.963544
v -3341.485914 105.442219 2261.217145
v -3349.465650 102.522313 2262.371595
v -3349.424390 62.674031 2262.189191
v -3341.785718 62.715047 2261.084119
v -3353.271314 115.700688 2254.839246
v -3346.139478 119.246045 2253.807477
v -3352.174634 115.700688 2262.420057
v -3345.042798 119.246045 2261.388288
v -3356.523511 127.548558 2256.039533
v -3351.139478 130.921239 2255.260663
v -3355.633619 127.548558 2262.190686
v -3350.249586 130.921239 2261.411786
v -3360.323316 137.529919 2257.543134
v -3356.619947 140.308125 2257.007398
v -3359.703687 137.529919 2261.825605
v -3356.000562 140.308125 2261.289869
v -3363.252759 144.873669 2259.125196
v -3361.581617 146.293111 2258.883405
v -3362.961500 144.873669 2261.138593
v -3361.290357 146.293111 2260.896833
v -3364.531568 148.790219 2260.337934
v -3357.454419 63.427144 2261.084638
v -3360.962720 60.814168 2266.096540
v -3364.259839 92.393010 2272.378095
v -3360.822095 97.403737 2267.598584
v -3355.107740 97.005086 2271.489667
v -3358.545484 91.994343 2276.269178
v -3355.487867 60.432210 2269.824628
v -3351.979322 63.045186 2264.812757
v -3366.290845 101.926259 2276.374433
v -3363.292066 107.146428 2272.251142
v -3361.042310 101.560109 2279.948285
v -3358.043531 106.780263 2275.825025
v -3368.274000 110.151509 2280.794904
v -3366.065259 114.644246 2277.792646
v -3364.015455 109.854405 2283.694776
v -3361.806714 114.347142 2280.692548
v -3370.224439 116.690571 2285.403547
v -3368.741285 120.144261 2283.411115
v -3367.259595 116.483731 2287.422467
v -3365.776441 119.937413 2285.430036
v -3371.441236 121.413022 2289.135480
v -3370.784986 123.102978 2288.262616
v -3370.047193 121.315777 2290.084699
v -3369.390943 123.005726 2289.211835
v -3371.708326 123.988423 2291.166913
v -3342.930005 62.715047 2253.176191
v -3336.033033 59.281987 2253.297315
v -3326.779127 94.915211 2253.625776
v -3333.320142 101.076497 2253.510907
v -3333.180982 101.076497 2245.589399
v -3326.639966 94.915211 2245.704267
v -3335.899732 59.281987 2245.707563
v -3342.796705 62.715047 2245.586438
v -3321.326734 105.526509 2253.398542
v -3326.956617 111.870549 2253.299665
v -3321.198804 105.526509 2246.122785
v -3326.828931 111.870549 2246.023908
v -3315.546216 114.637929 2252.813733
v -3319.635572 120.050198 2252.741925
v -3315.442457 114.637929 2246.910138
v -3319.532056 120.050198 2246.838330
v -3309.669019 121.821248 2252.019971
v -3312.376050 125.954228 2251.972425
v -3309.596753 121.821248 2247.909803
v -3312.303785 125.954228 2247.862256
v -3305.157789 127.018101 2251.009992
v -3306.341382 129.031529 2250.989209
v -3305.123853 127.018101 2249.077619
v -3306.307203 129.031529 2249.056806
v -3302.949293 129.890004 2250.082288
v -3328.274488 62.715047 2255.914411
v -3323.659253 58.300618 2259.486463
v -3315.633375 88.336201 2268.516980
v -3319.870923 95.120228 2265.426801
v -3315.257398 95.847600 2259.937330
v -3311.019605 89.063557 2263.027509
v -3319.238843 58.997517 2254.226911
v -3323.853834 63.411946 2250.654859
v -3311.161939 96.790028 2272.478650
v -3314.759595 103.559758 2269.925458
v -3306.924390 97.458089 2267.436689
v -3310.522046 104.227818 2264.883466
v -3306.328199 103.873585 2276.217939
v -3308.902906 109.509816 2274.445783
v -3302.889722 104.415654 2272.126844
v -3305.464429 110.051884 2270.354688
v -3301.399732 109.234578 2279.666822
v -3303.077711 113.457509 2278.550000
v -3299.005689 109.611973 2276.818555
v -3300.683668 113.834904 2275.701764
v -3297.403394 113.104405 2281.999982
v -3298.127027 115.135243 2281.532941
v -3296.277906 113.281834 2280.660871
v -3297.001539 115.312680 2280.193830
v -3295.184156 115.333142 2282.871381
v -3342.930005 62.715047 2253.176160
v -3344.326490 62.667699 2244.378431
v -3344.139478 108.658345 2244.270551
v -3342.680738 112.028340 2253.461316
v -3352.186597 112.028340 2254.970197
v -3353.645582 108.658345 2245.779432
v -3353.434400 62.667699 2245.824109
v -3352.037916 62.715047 2254.621839
v -3345.013257 123.868085 2241.268110
v -3343.709546 127.959935 2249.482282
v -3353.744459 123.868085 2242.653974
v -3352.440503 127.959935 2250.868146
v -3346.450025 137.542226 2237.534101
v -3345.465894 141.434788 2243.734967
v -3353.534498 137.542226 2238.658612
v -3352.550367 141.434788 2244.859479
v -3348.245435 149.062153 2233.172773
v -3347.568433 152.268597 2237.438031
v -3353.177808 149.062153 2233.955671
v -3352.500806 152.268597 2238.220929
v -3350.117750 157.537892 2229.817090
v -3349.812330 159.176137 2231.741925
v -3352.436597 157.537892 2230.185163
v -3352.131177 159.176137 2232.109998
v -3351.537671 162.058156 2228.360761
v -3324.492017 67.212697 2230.533612
v -3318.672925 64.130940 2228.201703
v -3311.285230 96.495534 2224.309125
v -3316.838697 102.053029 2226.455610
v -3319.602369 101.671315 2219.823621
v -3314.048902 96.113820 2217.677106
v -3321.320875 63.765217 2221.847455
v -3327.139966 66.846974 2224.179364
v -3306.961255 106.127827 2221.898664
v -3311.753736 111.855214 2223.722883
v -3309.499830 105.777226 2215.807294
v -3314.292310 111.504613 2217.631513
v -3302.476880 114.383900 2219.105451
v -3305.967603 119.273350 2220.412458
v -3304.536695 114.099431 2214.162854
v -3308.027173 118.988873 2215.469861
v -3297.964918 120.881734 2216.146528
v -3300.282056 124.617383 2216.999433
v -3299.398755 120.683682 2212.705457
v -3301.716138 124.419324 2213.558332
v -3294.643384 125.562604 2213.549573
v -3295.659009 127.383084 2213.917798
v -3295.317701 125.469487 2211.931745
v -3296.333082 127.289967 2212.299970
v -3293.178785 128.130482 2211.910871
v -3332.010816 62.715047 2285.621808
v -3330.170240 60.083974 2288.578962
v -3326.548658 78.081517 2294.694135
v -3328.205640 82.131215 2292.041120
v -3324.558668 82.154576 2289.782087
v -3322.901685 78.104878 2292.435102
v -3326.676099 60.106358 2286.414533
v -3328.516675 62.737416 2283.457410
v -3324.539869 83.132298 2297.632306
v -3325.934400 87.174855 2295.403089
v -3321.190259 83.153752 2295.557416
v -3322.584546 87.196309 2293.328229
v -3322.318921 87.344685 2300.534894
v -3323.307203 90.711293 2298.957624
v -3319.601148 87.362080 2298.851300
v -3320.589429 90.728688 2297.274060
v -3320.033765 90.515385 2303.319196
v -3320.671216 93.038365 2302.303785
v -3318.141431 90.527516 2302.147077
v -3318.778882 93.050481 2301.131665
v -3318.106763 92.781605 2305.322370
v -3318.379224 93.995106 2304.889264
v -3317.217115 92.787312 2304.771283
v -3317.489576 94.000813 2304.338178
v -3316.956128 94.068532 2306.193219
v -3380.010328 62.715047 2252.402417
v -3384.776441 58.886616 2250.831159
v -3394.659253 84.817891 2247.785444
v -3390.393628 90.691807 2249.216901
v -3392.288892 90.576085 2255.114362
v -3396.554761 84.702168 2253.682904
v -3386.592359 58.775746 2256.481611
v -3381.826246 62.604176 2258.052869
v -3399.667798 92.075093 2246.515668
v -3396.087476 97.934498 2247.726728
v -3401.408765 91.968800 2251.932386
v -3397.828199 97.828206 2253.143445
v -3404.867994 98.114125 2245.470136
v -3402.337964 102.991032 2246.333539
v -3406.280591 98.027882 2249.865308
v -3403.750562 102.904790 2250.728711
v -3410.018140 102.645589 2244.598218
v -3408.391431 106.298772 2245.158674
v -3411.001783 102.585560 2247.658185
v -3409.374830 106.238728 2248.218610
v -3414.034253 105.874577 2244.235273
v -3413.341138 107.631123 2244.476087
v -3414.496656 105.846348 2245.673902
v -3413.803541 107.602894 2245.914747
v -3416.127027 107.703313 2244.375196
vt 0.232410 0.688996
vt 0.247910 0.688430
vt 0.251352 0.767472
vt 0.235276 0.767365
vt 0.219238 0.767588
vt 0.203218 0.768255
vt 0.201364 0.689991
vt 0.216862 0.689509
vt 0.200918 0.674577
vt 0.216359 0.674100
vt 0.185938 0.690383
vt 0.187201 0.769267
vt 0.249288 0.795932
vt 0.234650 0.794509
vt 0.205316 0.795242
vt 0.190729 0.797424
vt 0.219974 0.794277
vt 0.243953 0.821678
vt 0.232542 0.819548
vt 0.208849 0.820097
vt 0.197137 0.822861
vt 0.220482 0.819006
vt 0.237175 0.843947
vt 0.229296 0.841449
vt 0.212846 0.841768
vt 0.204994 0.844570
vt 0.221066 0.840709
vt 0.228551 0.859130
vt 0.225182 0.857327
vt 0.217559 0.857453
vt 0.214140 0.859438
vt 0.221381 0.856746
vt 0.221500 0.865327
vt 0.668199 0.692329
vt 0.679252 0.691925
vt 0.681706 0.748288
vt 0.670243 0.748211
vt 0.658806 0.748371
vt 0.647383 0.748846
vt 0.646061 0.693038
vt 0.657112 0.692695
vt 0.645743 0.682047
vt 0.656754 0.681707
vt 0.635061 0.693318
vt 0.635962 0.749568
vt 0.680235 0.768582
vt 0.669796 0.767567
vt 0.648879 0.768090
vt 0.638478 0.769646
vt 0.659331 0.767402
vt 0.676430 0.786940
vt 0.668293 0.785421
vt 0.651398 0.785813
vt 0.643047 0.787784
vt 0.659693 0.785035
vt 0.671597 0.802820
vt 0.665978 0.801038
vt 0.654249 0.801266
vt 0.648650 0.803264
vt 0.660110 0.800511
vt 0.665447 0.813647
vt 0.663045 0.812360
vt 0.657609 0.812451
vt 0.655171 0.813866
vt 0.660335 0.811946
vt 0.660420 0.818065
vt 0.065042 0.687424
vt 0.082307 0.686792
vt 0.086141 0.774834
vt 0.068235 0.774715
vt 0.050370 0.774964
vt 0.032526 0.775707
vt 0.030461 0.688531
vt 0.047725 0.687995
vt 0.029965 0.671363
vt 0.047164 0.670831
vt 0.013279 0.688968
vt 0.014686 0.776833
vt 0.083843 0.806535
vt 0.067537 0.804949
vt 0.034864 0.805767
vt 0.018616 0.808196
vt 0.051190 0.804691
vt 0.077900 0.835212
vt 0.065190 0.832839
vt 0.038798 0.833452
vt 0.025753 0.836529
vt 0.051756 0.832236
vt 0.070350 0.860016
vt 0.061574 0.857234
vt 0.043251 0.857590
vt 0.034505 0.860711
vt 0.052407 0.856410
vt 0.060744 0.876929
vt 0.056991 0.874919
vt 0.048501 0.875060
vt 0.044692 0.877271
vt 0.052758 0.874273
vt 0.052891 0.883830
vt 0.308284 0.688373
vt 0.323243 0.687826
vt 0.326566 0.764109
vt 0.311050 0.764006
vt 0.295572 0.764221
vt 0.280111 0.764865
vt 0.278322 0.689332
vt 0.293280 0.688867
vt 0.277892 0.674456
vt 0.292794 0.673996
vt 0.263434 0.689711
vt 0.264654 0.765841
vt 0.324574 0.791575
vt 0.310446 0.790202
vt 0.282136 0.790910
vt 0.268059 0.793015
vt 0.296282 0.789978
vt 0.319425 0.816423
vt 0.308412 0.814367
vt 0.285545 0.814897
vt 0.274242 0.817564
vt 0.296772 0.813844
vt 0.312883 0.837914
vt 0.305279 0.835503
vt 0.289403 0.835812
vt 0.281826 0.838516
vt 0.297337 0.834789
vt 0.304560 0.852568
vt 0.301308 0.850827
vt 0.293952 0.850949
vt 0.290652 0.852865
vt 0.297641 0.850267
vt 0.297756 0.858548
vt 0.559470 0.690865
vt 0.571756 0.690416
vt 0.574484 0.753062
vt 0.561742 0.752977
vt 0.549031 0.753154
vt 0.536334 0.753683
vt 0.534865 0.691653
vt 0.547148 0.691271
vt 0.534512 0.679436
vt 0.546749 0.679058
vt 0.522638 0.691964
vt 0.523640 0.754485
vt 0.572848 0.775619
vt 0.561246 0.774491
vt 0.537997 0.775072
vt 0.526436 0.776801
vt 0.549614 0.774307
vt 0.568620 0.796024
vt 0.559575 0.794336
vt 0.540797 0.794771
vt 0.531514 0.796962
vt 0.550017 0.793906
vt 0.563248 0.813674
vt 0.557002 0.811694
vt 0.543965 0.811947
vt 0.537742 0.814168
vt 0.550480 0.811107
vt 0.556413 0.825708
vt 0.553742 0.824278
vt 0.547701 0.824378
vt 0.544990 0.825951
vt 0.550730 0.823818
vt 0.550824 0.830619
vt 0.376679 0.690052
vt 0.390717 0.689539
vt 0.393834 0.761120
vt 0.379275 0.761023
vt 0.364751 0.761225
vt 0.350243 0.761829
vt 0.348564 0.690953
vt 0.362600 0.690517
vt 0.348161 0.676994
vt 0.362144 0.676562
vt 0.334594 0.691308
vt 0.335738 0.762745
vt 0.391965 0.786894
vt 0.378708 0.785605
vt 0.352144 0.786269
vt 0.338934 0.788245
vt 0.365417 0.785395
vt 0.387133 0.810209
vt 0.376799 0.808280
vt 0.355342 0.808778
vt 0.344736 0.811280
vt 0.365877 0.807790
vt 0.380995 0.830376
vt 0.373860 0.828114
vt 0.358963 0.828403
vt 0.351852 0.830941
vt 0.366407 0.827444
vt 0.373185 0.844126
vt 0.370134 0.842493
vt 0.363231 0.842608
vt 0.360134 0.844405
vt 0.366692 0.841967
vt 0.366800 0.849738
vt 0.495295 0.691956
vt 0.507929 0.691494
vt 0.510734 0.755917
vt 0.497631 0.755830
vt 0.484559 0.756012
vt 0.471502 0.756556
vt 0.469991 0.692766
vt 0.482623 0.692374
vt 0.469628 0.680203
vt 0.482213 0.679815
vt 0.457418 0.693086
vt 0.458448 0.757380
vt 0.509052 0.779114
vt 0.497121 0.777954
vt 0.473212 0.778552
vt 0.461323 0.780330
vt 0.485159 0.777765
vt 0.504704 0.800098
vt 0.495403 0.798362
vt 0.476092 0.798810
vt 0.466546 0.801062
vt 0.485573 0.797920
vt 0.499179 0.818248
vt 0.492757 0.816212
vt 0.479350 0.816473
vt 0.472950 0.818756
vt 0.486050 0.815609
vt 0.492150 0.830624
vt 0.489404 0.829153
vt 0.483191 0.829256
vt 0.480404 0.830874
vt 0.486306 0.828680
vt 0.486403 0.835674
vt 0.153658 0.683434
vt 0.170923 0.682803
vt 0.174757 0.770844
vt 0.156851 0.770725
vt 0.138986 0.770974
vt 0.121142 0.771716
vt 0.119077 0.684541
vt 0.136341 0.684005
vt 0.118581 0.667372
vt 0.135780 0.666841
vt 0.101895 0.684978
vt 0.103302 0.772843
vt 0.172459 0.802545
vt 0.156153 0.800959
vt 0.123480 0.801777
vt 0.107232 0.804206
vt 0.139806 0.800701
vt 0.166516 0.831222
vt 0.153805 0.828849
vt 0.127414 0.829461
vt 0.114369 0.832539
vt 0.140372 0.828246
vt 0.158966 0.856026
vt 0.150190 0.853244
vt 0.131867 0.853600
vt 0.123121 0.856721
vt 0.141023 0.852420
vt 0.149360 0.872939
vt 0.145607 0.870929
vt 0.137117 0.871070
vt 0.133308 0.873281
vt 0.141374 0.870283
vt 0.141507 0.879840
vt 0.435376 0.694100
vt 0.448117 0.693634
vt 0.450947 0.758605
vt 0.437732 0.758517
vt 0.424549 0.758700
vt 0.411381 0.759248
vt 0.409857 0.694917
vt 0.422597 0.694521
vt 0.409491 0.682247
vt 0.422183 0.681855
vt 0.397177 0.695239
vt 0.398216 0.760080
vt 0.449250 0.781998
vt 0.437218 0.780828
vt 0.413106 0.781431
vt 0.401116 0.783224
vt 0.425154 0.780638
vt 0.444865 0.803161
vt 0.435485 0.801410
vt 0.416009 0.801862
vt 0.406383 0.804133
vt 0.425571 0.800965
vt 0.439293 0.821465
vt 0.432817 0.819412
vt 0.419295 0.819675
vt 0.412841 0.821978
vt 0.426052 0.818804
vt 0.432205 0.833946
vt 0.429435 0.832463
vt 0.423169 0.832567
vt 0.420359 0.834199
vt 0.426311 0.831986
vt 0.426409 0.839039
vt 0.190426 0.836174
vt 0.197965 0.835898
vt 0.199640 0.874345
vt 0.191820 0.874293
vt 0.184018 0.874402
vt 0.176226 0.874726
vt 0.175324 0.836657
vt 0.182863 0.836423
vt 0.175108 0.829160
vt 0.182618 0.828928
vt 0.167821 0.836848
vt 0.168435 0.875218
vt 0.198636 0.888189
vt 0.191515 0.887497
vt 0.177247 0.887854
vt 0.170152 0.888915
vt 0.184377 0.887384
vt 0.196041 0.900712
vt 0.190490 0.899676
vt 0.178965 0.899943
vt 0.173268 0.901288
vt 0.184624 0.899413
vt 0.192744 0.911544
vt 0.188911 0.910329
vt 0.180910 0.910484
vt 0.177090 0.911847
vt 0.184908 0.909969
vt 0.188549 0.918930
vt 0.186910 0.918052
vt 0.183202 0.918114
vt 0.181539 0.919079
vt 0.185061 0.917770
vt 0.185119 0.921944
vt 0.613306 0.695665
vt 0.624191 0.695267
vt 0.626609 0.750776
vt 0.615319 0.750701
vt 0.604056 0.750857
vt 0.592805 0.751326
vt 0.591503 0.696364
vt 0.602388 0.696025
vt 0.591191 0.685539
vt 0.602034 0.685204
vt 0.580670 0.696639
vt 0.581558 0.752036
vt 0.625159 0.770762
vt 0.614879 0.769763
vt 0.594279 0.770278
vt 0.584035 0.771810
vt 0.604573 0.769600
vt 0.621412 0.788843
vt 0.613399 0.787347
vt 0.596760 0.787733
vt 0.588535 0.789673
vt 0.604929 0.786966
vt 0.616653 0.804481
vt 0.611119 0.802727
vt 0.599567 0.802951
vt 0.594053 0.804919
vt 0.605340 0.802207
vt 0.610596 0.815144
vt 0.608230 0.813877
vt 0.602877 0.813966
vt 0.600476 0.815360
vt 0.605561 0.813470
vt 0.605645 0.819496
vn -0.953865 0.062508 -0.293656
vn -0.274787 -0.092667 0.957029
vn -0.387717 -0.111492 0.915011
vn -0.910183 0.126654 -0.394367
vn 0.197643 0.141739 -0.969973
vn 0.974975 -0.093971 0.201477
vn 0.941536 -0.077432 0.327894
vn 0.297967 0.079208 -0.951284
vn -0.079667 -0.976748 -0.199037
vn -0.079667 -0.976748 -0.199037
vn -0.079667 -0.976748 -0.199037
vn -0.079667 -0.976748 -0.199037
vn -0.366238 -0.213182 0.905772
vn -0.916192 0.325847 -0.233274
vn 0.957083 -0.195581 0.213869
vn 0.324183 0.343799 -0.881310
vn -0.373244 -0.244820 0.894848
vn -0.888639 0.430982 -0.156767
vn 0.953048 -0.226760 0.200696
vn 0.368118 0.449880 -0.813694
vn -0.372395 -0.268775 0.888303
vn -0.850780 0.519614 -0.078578
vn 0.948085 -0.249900 0.196684
vn 0.408605 0.539293 -0.736346
vn -0.359953 -0.242059 0.901022
vn -0.796141 0.604059 0.035670
vn 0.951132 -0.222710 0.213888
vn 0.469439 0.624339 -0.624362
vn 0.328977 0.679419 0.655869
vn 0.979263 0.084738 -0.184022
vn -0.204627 -0.100283 -0.973690
vn -0.071801 -0.115411 -0.990719
vn 0.985991 0.150374 -0.072183
vn 0.272254 0.150377 0.950402
vn -0.954711 -0.115409 0.274239
vn -0.984528 -0.100283 0.143695
vn 0.164955 0.084738 0.982654
vn 0.204960 -0.968260 0.143055
vn 0.204960 -0.968260 0.143055
vn 0.204960 -0.968260 0.143055
vn 0.204960 -0.968260 0.143055
vn -0.084667 -0.217564 -0.972367
vn 0.910793 0.349082 -0.220449
vn -0.941922 -0.217556 0.255837
vn 0.107154 0.349088 0.930943
vn -0.071705 -0.248739 -0.965913
vn 0.847054 0.453692 -0.276880
vn -0.931393 -0.248741 0.265774
vn 0.032193 0.453688 0.890579
vn -0.068329 -0.272351 -0.959769
vn 0.773335 0.541260 -0.330137
vn -0.924461 -0.272345 0.266834
vn -0.043201 0.541268 0.839739
vn -0.086155 -0.245693 -0.965511
vn 0.667415 0.622843 -0.408196
vn -0.935996 -0.245677 0.252099
vn -0.153002 0.622843 0.767240
vn -0.617478 0.658002 -0.430993
vn -0.729596 -0.007636 0.683836
vn 0.708331 -0.004180 0.705868
vn 0.650820 -0.031917 0.758561
vn -0.773650 0.046428 0.631910
vn -0.773651 0.046428 -0.631909
vn 0.650819 -0.031916 -0.758562
vn 0.708330 -0.004180 -0.705870
vn -0.729597 -0.007635 -0.683835
vn -0.005315 -0.999986 0.000000
vn -0.005315 -0.999986 0.000000
vn -0.005315 -0.999986 0.000000
vn -0.005315 -0.999986 0.000000
vn 0.663708 -0.130915 0.736446
vn -0.678084 0.255071 0.689304
vn 0.663708 -0.130917 -0.736446
vn -0.678086 0.255070 -0.689303
vn 0.656632 -0.163472 0.736282
vn -0.619100 0.364425 0.695636
vn 0.656629 -0.163474 -0.736284
vn -0.619102 0.364422 -0.695636
vn 0.655060 -0.186998 0.732071
vn -0.552141 0.458690 0.696235
vn 0.655060 -0.186995 -0.732072
vn -0.552139 0.458693 -0.696235
vn 0.667003 -0.159455 0.727792
vn -0.449753 0.556156 0.698865
vn 0.667010 -0.159447 -0.727787
vn -0.449747 0.556165 -0.698862
vn 0.616844 0.787085 0.000002
vn 0.624169 -0.007634 -0.781253
vn -0.802096 -0.004175 -0.597181
vn -0.752722 -0.031915 -0.657564
vn 0.675206 0.046432 -0.736167
vn 0.856154 0.046433 0.514631
vn -0.535506 -0.031915 0.843928
vn -0.599969 -0.004175 0.800012
vn 0.819987 -0.007635 0.572331
vn 0.005259 -0.999986 -0.000761
vn 0.005259 -0.999986 -0.000761
vn 0.005259 -0.999986 -0.000761
vn 0.005259 -0.999986 -0.000761
vn -0.762314 -0.130934 -0.633825
vn 0.572407 0.255061 -0.779290
vn -0.551431 -0.130932 0.823881
vn 0.769795 0.255063 0.585114
vn -0.755287 -0.163489 -0.634675
vn 0.513130 0.364419 -0.777108
vn -0.544450 -0.163488 0.822707
vn 0.712329 0.364421 0.599821
vn -0.753130 -0.186988 -0.630739
vn 0.446764 0.458725 -0.768097
vn -0.543498 -0.186989 0.818319
vn 0.646123 0.458721 0.610000
vn -0.764345 -0.159437 -0.624785
vn 0.345084 0.556183 -0.756027
vn -0.555954 -0.159455 0.815775
vn 0.545194 0.556174 0.627243
vn -0.610505 0.787075 0.088304
vn -0.210224 0.163846 -0.963826
vn -0.963605 -0.145168 0.224480
vn -0.988618 -0.142297 0.048838
vn -0.085737 0.237607 -0.967570
vn 0.943017 0.197389 -0.267872
vn 0.294400 -0.190996 0.936402
vn 0.146028 -0.184218 0.971977
vn 0.984501 0.116383 -0.131198
vn 0.177348 -0.918079 -0.354512
vn 0.177348 -0.918079 -0.354512
vn 0.177348 -0.918079 -0.354512
vn 0.177348 -0.918079 -0.354512
vn -0.967762 -0.246263 0.052834
vn -0.250237 0.431472 -0.866726
vn 0.280618 -0.295266 0.913275
vn 0.922428 0.381384 -0.060614
vn -0.960674 -0.275559 0.034242
vn -0.313896 0.531876 -0.786497
vn 0.291903 -0.326133 0.899127
vn 0.877352 0.478743 0.032533
vn -0.953981 -0.298575 0.027810
vn -0.373719 0.612457 -0.696585
vn 0.292608 -0.351246 0.889386
vn 0.821192 0.557293 0.122751
vn -0.960528 -0.273544 0.050600
vn -0.459699 0.678613 -0.572854
vn 0.273764 -0.326959 0.904517
vn 0.742617 0.622066 0.248102
vn -0.444342 0.564527 0.695607
vn -0.670970 0.161663 0.723646
vn 0.709787 -0.190478 0.678174
vn 0.577586 -0.186606 0.794715
vn -0.753901 0.244076 0.609967
vn -0.732015 0.244076 -0.636067
vn 0.605137 -0.186607 -0.773943
vn 0.733164 -0.190478 -0.652831
vn -0.645146 0.161663 -0.746761
vn -0.445493 -0.895252 -0.007824
vn -0.445493 -0.895251 -0.007824
vn -0.445493 -0.895252 -0.007824
vn -0.445493 -0.895251 -0.007824
vn 0.563723 -0.291372 0.772864
vn -0.563063 0.428430 0.706688
vn 0.590517 -0.291375 -0.752590
vn -0.537904 0.428429 -0.726022
vn 0.543275 -0.321011 0.775760
vn -0.453927 0.524357 0.720416
vn 0.570175 -0.321009 -0.756210
vn -0.428356 0.524358 -0.735907
vn 0.533647 -0.345333 0.771988
vn -0.340641 0.599880 0.723952
vn 0.560428 -0.345332 -0.752773
vn -0.315000 0.599872 -0.735479
vn 0.558619 -0.321862 0.764428
vn -0.185238 0.657696 0.730153
vn 0.585124 -0.321870 -0.744332
vn -0.159458 0.657666 -0.736239
vn 0.850260 0.526149 0.015021
vn -0.959062 0.185865 0.213669
vn 0.116540 -0.314289 0.942147
vn -0.069980 -0.298453 0.951855
vn -0.953483 0.297826 0.046580
vn -0.147887 0.371294 -0.916662
vn 0.937028 -0.206148 -0.281926
vn 0.967248 -0.246039 -0.062421
vn -0.011371 0.277790 -0.960575
vn -0.410363 -0.793162 -0.449996
vn -0.410363 -0.793162 -0.449996
vn -0.410363 -0.793162 -0.449996
vn -0.410363 -0.793162 -0.449996
vn -0.080065 -0.405075 0.910771
vn -0.843879 0.450938 0.290728
vn 0.905309 -0.311964 -0.288259
vn 0.086189 0.545846 -0.833441
vn -0.100080 -0.434557 0.895067
vn -0.753319 0.529828 0.389607
vn 0.888609 -0.338216 -0.309814
vn 0.193444 0.630519 -0.751682
vn -0.104857 -0.462051 0.880633
vn -0.655614 0.585450 0.476885
vn 0.876912 -0.362643 -0.315461
vn 0.295266 0.688884 -0.662009
vn -0.072992 -0.444594 0.892753
vn -0.529059 0.611610 0.588243
vn 0.893826 -0.345291 -0.286095
vn 0.429361 0.716327 -0.550022
vn 0.686163 0.386262 0.616427
vn 0.789756 -0.007634 0.613373
vn 0.586097 -0.004176 -0.810230
vn 0.647156 -0.031911 -0.761690
vn 0.745377 0.046431 0.665024
vn -0.502813 0.046431 0.863147
vn -0.851210 -0.031911 -0.523855
vn -0.808183 -0.004178 -0.588917
vn -0.561006 -0.007636 0.827777
vn 0.000833 -0.999986 0.005250
vn 0.000833 -0.999986 0.005250
vn 0.000833 -0.999986 0.005250
vn 0.000833 -0.999986 0.005250
vn 0.623293 -0.130911 -0.770953
vn 0.787080 0.255074 0.561643
vn -0.831386 -0.130913 -0.540055
vn -0.574478 0.255072 0.777762
vn 0.624242 -0.163477 -0.763935
vn 0.784080 0.364422 0.502410
vn -0.830111 -0.163478 -0.533095
vn -0.589981 0.364422 0.720499
vn 0.620333 -0.187006 -0.761719
vn 0.774177 0.458691 0.436180
vn -0.825706 -0.186996 -0.532205
vn -0.601065 0.458700 0.654458
vn 0.614227 -0.159471 -0.772849
vn 0.760699 0.556190 0.334649
vn -0.823339 -0.159493 -0.544678
vn -0.619704 0.556177 0.553745
vn -0.096729 0.787095 -0.609201
vn -0.337450 0.182120 0.923558
vn 0.925679 -0.170585 0.337668
vn 0.846945 -0.162164 0.506347
vn -0.449814 0.260585 0.854262
vn -0.928969 0.223327 -0.295198
vn 0.254210 -0.207726 -0.944578
vn 0.408614 -0.206367 -0.889071
vn -0.888555 0.137470 -0.437690
vn -0.388981 -0.896123 0.213676
vn -0.388981 -0.896123 0.213676
vn -0.388981 -0.896123 0.213676
vn -0.388981 -0.896123 0.213676
vn 0.827952 -0.266748 0.493296
vn -0.243668 0.450057 0.859112
vn 0.249310 -0.312611 -0.916580
vn -0.788698 0.403176 -0.464118
vn 0.810529 -0.295661 0.505597
vn -0.140041 0.547677 0.824887
vn 0.230444 -0.343035 -0.910617
vn -0.694081 0.497886 -0.519963
vn 0.800577 -0.319028 0.507245
vn -0.035340 0.624436 0.780276
vn 0.223703 -0.368315 -0.902387
vn -0.592251 0.572822 -0.566669
vn 0.820049 -0.295148 0.490314
vn 0.109697 0.683440 0.721717
vn 0.249700 -0.344947 -0.904799
vn -0.452422 0.630637 -0.630565
vn 0.775030 0.529028 -0.345627
vn -0.965943 0.229030 -0.120415
vn -0.192007 -0.280761 0.940376
vn -0.388750 -0.254221 0.885576
vn -0.905512 0.331548 -0.264811
vn 0.164200 0.335506 -0.927617
vn 0.967432 -0.249265 0.044066
vn 0.928683 -0.277105 0.246496
vn 0.319177 0.233959 -0.918362
vn -0.313693 -0.797946 -0.514663
vn -0.313693 -0.797946 -0.514663
vn -0.313693 -0.797946 -0.514664
vn -0.313693 -0.797946 -0.514663
vn -0.387717 -0.360392 0.848407
vn -0.868669 0.495305 -0.009309
vn 0.934296 -0.355362 0.028429
vn 0.374969 0.500426 -0.780367
vn -0.404230 -0.388358 0.828116
vn -0.809028 0.577263 0.110642
vn 0.923666 -0.383172 0.004417
vn 0.455341 0.582690 -0.673154
vn -0.406295 -0.414369 0.814385
vn -0.739725 0.634550 0.223950
vn 0.912518 -0.409021 -0.003683
vn 0.525743 0.640106 -0.560231
vn -0.379929 -0.396796 0.835588
vn -0.651558 0.661790 0.370819
vn 0.919708 -0.391506 0.029328
vn 0.617970 0.667411 -0.415543
vn 0.483777 0.388592 0.784191
vn 0.813932 0.241814 -0.528243
vn -0.462185 -0.275059 -0.843047
vn -0.272418 -0.244941 -0.930480
vn 0.858711 0.342703 -0.381011
vn 0.472996 0.329137 0.817278
vn -0.765015 -0.261996 0.588311
vn -0.864597 -0.287642 0.411987
vn 0.345483 0.224814 0.911098
vn 0.582008 -0.794904 0.171447
vn 0.582008 -0.794904 0.171447
vn 0.582008 -0.794904 0.171447
vn 0.582008 -0.794904 0.171447
vn -0.248945 -0.350998 -0.902678
vn 0.663819 0.508393 -0.548526
vn -0.728179 -0.368203 0.578085
vn 0.213896 0.490847 0.844581
vn -0.222759 -0.378531 -0.898383
vn 0.539426 0.590576 -0.600200
vn -0.704337 -0.396339 0.588919
vn 0.082366 0.571954 0.816140
vn -0.212089 -0.404251 -0.889719
vn 0.411953 0.647576 -0.641046
vn -0.690301 -0.422605 0.587274
vn -0.044604 0.628468 0.776556
vn -0.246037 -0.386914 -0.888687
vn 0.248530 0.674032 -0.695639
vn -0.717382 -0.405240 0.566696
vn -0.208326 0.654691 0.726622
vn -0.880304 0.385087 -0.277080
s 1
g SM_GrassSmall
usemtl lambert11SG
f 1/1/1 2/2/2 3/3/3 4/4/4
f 5/5/5 6/6/6 7/7/7 8/8/8
s off
f 8/8/9 7/7/10 2/9/11 1/10/12
s 1
f 2/11/2 7/7/7 6/6/6 3/12/3
f 8/8/8 1/1/1 4/4/4 5/5/5
f 4/4/4 3/3/3 9/13/13 10/14/14
f 3/12/3 6/6/6 11/15/15 9/16/13
f 6/6/6 5/5/5 12/17/16 11/15/15
f 5/5/5 4/4/4 10/14/14 12/17/16
f 10/14/14 9/13/13 13/18/17 14/19/18
f 9/16/13 11/15/15 15/20/19 13/21/17
f 11/15/15 12/17/16 16/22/20 15/20/19
f 12/17/16 10/14/14 14/19/18 16/22/20
f 14/19/18 13/18/17 17/23/21 18/24/22
f 13/21/17 15/20/19 19/25/23 17/26/21
f 15/20/19 16/22/20 20/27/24 19/25/23
f 16/22/20 14/19/18 18/24/22 20/27/24
f 18/24/22 17/23/21 21/28/25 22/29/26
f 17/26/21 19/25/23 23/30/27 21/31/25
f 19/25/23 20/27/24 24/32/28 23/30/27
f 20/27/24 18/24/22 22/29/26 24/32/28
f 22/29/26 21/28/25 25/33/29
f 21/31/25 23/30/27 25/33/29
f 23/30/27 24/32/28 25/33/29
f 24/32/28 22/29/26 25/33/29
s 3
f 26/34/30 27/35/31 28/36/32 29/37/33
f 30/38/34 31/39/35 32/40/36 33/41/37
s off
f 33/41/38 32/40/39 27/42/40 26/43/41
s 3
f 27/44/31 32/40/36 31/39/35 28/45/32
f 33/41/37 26/34/30 29/37/33 30/38/34
f 29/37/33 28/36/32 34/46/42 35/47/43
f 28/45/32 31/39/35 36/48/44 34/49/42
f 31/39/35 30/38/34 37/50/45 36/48/44
f 30/38/34 29/37/33 35/47/43 37/50/45
f 35/47/43 34/46/42 38/51/46 39/52/47
f 34/49/42 36/48/44 40/53/48 38/54/46
f 36/48/44 37/50/45 41/55/49 40/53/48
f 37/50/45 35/47/43 39/52/47 41/55/49
f 39/52/47 38/51/46 42/56/50 43/57/51
f 38/54/46 40/53/48 44/58/52 42/59/50
f 40/53/48 41/55/49 45/60/53 44/58/52
f 41/55/49 39/52/47 43/57/51 45/60/53
f 43/57/51 42/56/50 46/61/54 47/62/55
f 42/59/50 44/58/52 48/63/56 46/64/54
f 44/58/52 45/60/53 49/65/57 48/63/56
f 45/60/53 43/57/51 47/62/55 49/65/57
f 47/62/55 46/61/54 50/66/58
f 46/64/54 48/63/56 50/66/58
f 48/63/56 49/65/57 50/66/58
f 49/65/57 47/62/55 50/66/58
s 5
f 51/67/59 52/68/60 53/69/61 54/70/62
f 55/71/63 56/72/64 57/73/65 58/74/66
s off
f 58/74/67 57/73/68 52/75/69 51/76/70
s 5
f 52/77/60 57/73/65 56/72/64 53/78/61
f 58/74/66 51/67/59 54/70/62 55/71/63
f 54/70/62 53/69/61 59/79/71 60/80/72
f 53/78/61 56/72/64 61/81/73 59/82/71
f 56/72/64 55/71/63 62/83/74 61/81/73
f 55/71/63 54/70/62 60/80/72 62/83/74
f 60/80/72 59/79/71 63/84/75 64/85/76
f 59/82/71 61/81/73 65/86/77 63/87/75
f 61/81/73 62/83/74 66/88/78 65/86/77
f 62/83/74 60/80/72 64/85/76 66/88/78
f 64/85/76 63/84/75 67/89/79 68/90/80
f 63/87/75 65/86/77 69/91/81 67/92/79
f 65/86/77 66/88/78 70/93/82 69/91/81
f 66/88/78 64/85/76 68/90/80 70/93/82
f 68/90/80 67/89/79 71/94/83 72/95/84
f 67/92/79 69/91/81 73/96/85 71/97/83
f 69/91/81 70/93/82 74/98/86 73/96/85
f 70/93/82 68/90/80 72/95/84 74/98/86
f 72/95/84 71/94/83 75/99/87
f 71/97/83 73/96/85 75/99/87
f 73/96/85 74/98/86 75/99/87
f 74/98/86 72/95/84 75/99/87
s 7
f 76/100/88 77/101/89 78/102/90 79/103/91
f 80/104/92 81/105/93 82/106/94 83/107/95
s off
f 83/107/96 82/106/97 77/108/98 76/109/99
s 7
f 77/110/89 82/106/94 81/105/93 78/111/90
f 83/107/95 76/100/88 79/103/91 80/104/92
f 79/103/91 78/102/90 84/112/100 85/113/101
f 78/111/90 81/105/93 86/114/102 84/115/100
f 81/105/93 80/104/92 87/116/103 86/114/102
f 80/104/92 79/103/91 85/113/101 87/116/103
f 85/113/101 84/112/100 88/117/104 89/118/105
f 84/115/100 86/114/102 90/119/106 88/120/104
f 86/114/102 87/116/103 91/121/107 90/119/106
f 87/116/103 85/113/101 89/118/105 91/121/107
f 89/118/105 88/117/104 92/122/108 93/123/109
f 88/120/104 90/119/106 94/124/110 92/125/108
f 90/119/106 91/121/107 95/126/111 94/124/110
f 91/121/107 89/118/105 93/123/109 95/126/111
f 93/123/109 92/122/108 96/127/112 97/128/113
f 92/125/108 94/124/110 98/129/114 96/130/112
f 94/124/110 95/126/111 99/131/115 98/129/114
f 95/126/111 93/123/109 97/128/113 99/131/115
f 97/128/113 96/127/112 100/132/116
f 96/130/112 98/129/114 100/132/116
f 98/129/114 99/131/115 100/132/116
f 99/131/115 97/128/113 100/132/116
s 9
f 101/133/117 102/134/118 103/135/119 104/136/120
f 105/137/121 106/138/122 107/139/123 108/140/124
s off
f 108/140/125 107/139/126 102/141/127 101/142/128
s 9
f 102/143/118 107/139/123 106/138/122 103/144/119
f 108/140/124 101/133/117 104/136/120 105/137/121
f 104/136/120 103/135/119 109/145/129 110/146/130
f 103/144/119 106/138/122 111/147/131 109/148/129
f 106/138/122 105/137/121 112/149/132 111/147/131
f 105/137/121 104/136/120 110/146/130 112/149/132
f 110/146/130 109/145/129 113/150/133 114/151/134
f 109/148/129 111/147/131 115/152/135 113/153/133
f 111/147/131 112/149/132 116/154/136 115/152/135
f 112/149/132 110/146/130 114/151/134 116/154/136
f 114/151/134 113/150/133 117/155/137 118/156/138
f 113/153/133 115/152/135 119/157/139 117/158/137
f 115/152/135 116/154/136 120/159/140 119/157/139
f 116/154/136 114/151/134 118/156/138 120/159/140
f 118/156/138 117/155/137 121/160/141 122/161/142
f 117/158/137 119/157/139 123/162/143 121/163/141
f 119/157/139 120/159/140 124/164/144 123/162/143
f 120/159/140 118/156/138 122/161/142 124/164/144
f 122/161/142 121/160/141 125/165/145
f 121/163/141 123/162/143 125/165/145
f 123/162/143 124/164/144 125/165/145
f 124/164/144 122/161/142 125/165/145
s 11
f 126/166/146 127/167/147 128/168/148 129/169/149
f 130/170/150 131/171/151 132/172/152 133/173/153
s off
f 133/173/154 132/172/155 127/174/156 126/175/157
s 11
f 127/176/147 132/172/152 131/171/151 128/177/148
f 133/173/153 126/166/146 129/169/149 130/170/150
f 129/169/149 128/168/148 134/178/158 135/179/159
f 128/177/148 131/171/151 136/180/160 134/181/158
f 131/171/151 130/170/150 137/182/161 136/180/160
f 130/170/150 129/169/149 135/179/159 137/182/161
f 135/179/159 134/178/158 138/183/162 139/184/163
f 134/181/158 136/180/160 140/185/164 138/186/162
f 136/180/160 137/182/161 141/187/165 140/185/164
f 137/182/161 135/179/159 139/184/163 141/187/165
f 139/184/163 138/183/162 142/188/166 143/189/167
f 138/186/162 140/185/164 144/190/168 142/191/166
f 140/185/164 141/187/165 145/192/169 144/190/168
f 141/187/165 139/184/163 143/189/167 145/192/169
f 143/189/167 142/188/166 146/193/170 147/194/171
f 142/191/166 144/190/168 148/195/172 146/196/170
f 144/190/168 145/192/169 149/197/173 148/195/172
f 145/192/169 143/189/167 147/194/171 149/197/173
f 147/194/171 146/193/170 150/198/174
f 146/196/170 148/195/172 150/198/174
f 148/195/172 149/197/173 150/198/174
f 149/197/173 147/194/171 150/198/174
s 13
f 151/199/175 152/200/176 153/201/177 154/202/178
f 155/203/179 156/204/180 157/205/181 158/206/182
s off
f 158/206/183 157/205/184 152/207/185 151/208/186
s 13
f 152/209/176 157/205/181 156/204/180 153/210/177
f 158/206/182 151/199/175 154/202/178 155/203/179
f 154/202/178 153/201/177 159/211/187 160/212/188
f 153/210/177 156/204/180 161/213/189 159/214/187
f 156/204/180 155/203/179 162/215/190 161/213/189
f 155/203/179 154/202/178 160/212/188 162/215/190
f 160/212/188 159/211/187 163/216/191 164/217/192
f 159/214/187 161/213/189 165/218/193 163/219/191
f 161/213/189 162/215/190 166/220/194 165/218/193
f 162/215/190 160/212/188 164/217/192 166/220/194
f 164/217/192 163/216/191 167/221/195 168/222/196
f 163/219/191 165/218/193 169/223/197 167/224/195
f 165/218/193 166/220/194 170/225/198 169/223/197
f 166/220/194 164/217/192 168/222/196 170/225/198
f 168/222/196 167/221/195 171/226/199 172/227/200
f 167/224/195 169/223/197 173/228/201 171/229/199
f 169/223/197 170/225/198 174/230/202 173/228/201
f 170/225/198 168/222/196 172/227/200 174/230/202
f 172/227/200 171/226/199 175/231/203
f 171/229/199 173/228/201 175/231/203
f 173/228/201 174/230/202 175/231/203
f 174/230/202 172/227/200 175/231/203
s 15
f 176/232/204 177/233/205 178/234/206 179/235/207
f 180/236/208 181/237/209 182/238/210 183/239/211
s off
f 183/239/212 182/238/213 177/240/214 176/241/215
s 15
f 177/242/205 182/238/210 181/237/209 178/243/206
f 183/239/211 176/232/204 179/235/207 180/236/208
f 179/235/207 178/234/206 184/244/216 185/245/217
f 178/243/206 181/237/209 186/246/218 184/247/216
f 181/237/209 180/236/208 187/248/219 186/246/218
f 180/236/208 179/235/207 185/245/217 187/248/219
f 185/245/217 184/244/216 188/249/220 189/250/221
f 184/247/216 186/246/218 190/251/222 188/252/220
f 186/246/218 187/248/219 191/253/223 190/251/222
f 187/248/219 185/245/217 189/250/221 191/253/223
f 189/250/221 188/249/220 192/254/224 193/255/225
f 188/252/220 190/251/222 194/256/226 192/257/224
f 190/251/222 191/253/223 195/258/227 194/256/226
f 191/253/223 189/250/221 193/255/225 195/258/227
f 193/255/225 192/254/224 196/259/228 197/260/229
f 192/257/224 194/256/226 198/261/230 196/262/228
f 194/256/226 195/258/227 199/263/231 198/261/230
f 195/258/227 193/255/225 197/260/229 199/263/231
f 197/260/229 196/259/228 200/264/232
f 196/262/228 198/261/230 200/264/232
f 198/261/230 199/263/231 200/264/232
f 199/263/231 197/260/229 200/264/232
s 17
f 201/265/233 202/266/234 203/267/235 204/268/236
f 205/269/237 206/270/238 207/271/239 208/272/240
s off
f 208/272/241 207/271/242 202/273/243 201/274/244
s 17
f 202/275/234 207/271/239 206/270/238 203/276/235
f 208/272/240 201/265/233 204/268/236 205/269/237
f 204/268/236 203/267/235 209/277/245 210/278/246
f 203/276/235 206/270/238 211/279/247 209/280/245
f 206/270/238 205/269/237 212/281/248 211/279/247
f 205/269/237 204/268/236 210/278/246 212/281/248
f 210/278/246 209/277/245 213/282/249 214/283/250
f 209/280/245 211/279/247 215/284/251 213/285/249
f 211/279/247 212/281/248 216/286/252 215/284/251
f 212/281/248 210/278/246 214/283/250 216/286/252
f 214/283/250 213/282/249 217/287/253 218/288/254
f 213/285/249 215/284/251 219/289/255 217/290/253
f 215/284/251 216/286/252 220/291/256 219/289/255
f 216/286/252 214/283/250 218/288/254 220/291/256
f 218/288/254 217/287/253 221/292/257 222/293/258
f 217/290/253 219/289/255 223/294/259 221/295/257
f 219/289/255 220/291/256 224/296/260 223/294/259
f 220/291/256 218/288/254 222/293/258 224/296/260
f 222/293/258 221/292/257 225/297/261
f 221/295/257 223/294/259 225/297/261
f 223/294/259 224/296/260 225/297/261
f 224/296/260 222/293/258 225/297/261
s 19
f 226/298/262 227/299/263 228/300/264 229/301/265
f 230/302/266 231/303/267 232/304/268 233/305/269
s off
f 233/305/270 232/304/271 227/306/272 226/307/273
s 19
f 227/308/263 232/304/268 231/303/267 228/309/264
f 233/305/269 226/298/262 229/301/265 230/302/266
f 229/301/265 228/300/264 234/310/274 235/311/275
f 228/309/264 231/303/267 236/312/276 234/313/274
f 231/303/267 230/302/266 237/314/277 236/312/276
f 230/302/266 229/301/265 235/311/275 237/314/277
f 235/311/275 234/310/274 238/315/278 239/316/279
f 234/313/274 236/312/276 240/317/280 238/318/278
f 236/312/276 237/314/277 241/319/281 240/317/280
f 237/314/277 235/311/275 239/316/279 241/319/281
f 239/316/279 238/315/278 242/320/282 243/321/283
f 238/318/278 240/317/280 244/322/284 242/323/282
f 240/317/280 241/319/281 245/324/285 244/322/284
f 241/319/281 239/316/279 243/321/283 245/324/285
f 243/321/283 242/320/282 246/325/286 247/326/287
f 242/323/282 244/322/284 248/327/288 246/328/286
f 244/322/284 245/324/285 249/329/289 248/327/288
f 245/324/285 243/321/283 247/326/287 249/329/289
f 247/326/287 246/325/286 250/330/290
f 246/328/286 248/327/288 250/330/290
f 248/327/288 249/329/289 250/330/290
f 249/329/289 247/326/287 250/330/290
s 21
f 251/331/291 252/332/292 253/333/293 254/334/294
f 255/335/295 256/336/296 257/337/297 258/338/298
s off
f 258/338/299 257/337/300 252/339/301 251/340/302
s 21
f 252/341/292 257/337/297 256/336/296 253/342/293
f 258/338/298 251/331/291 254/334/294 255/335/295
f 254/334/294 253/333/293 259/343/303 260/344/304
f 253/342/293 256/336/296 261/345/305 259/346/303
f 256/336/296 255/335/295 262/347/306 261/345/305
f 255/335/295 254/334/294 260/344/304 262/347/306
f 260/344/304 259/343/303 263/348/307 264/349/308
f 259/346/303 261/345/305 265/350/309 263/351/307
f 261/345/305 262/347/306 266/352/310 265/350/309
f 262/347/306 260/344/304 264/349/308 266/352/310
f 264/349/308 263/348/307 267/353/311 268/354/312
f 263/351/307 265/350/309 269/355/313 267/356/311
f 265/350/309 266/352/310 270/357/314 269/355/313
f 266/352/310 264/349/308 268/354/312 270/357/314
f 268/354/312 267/353/311 271/358/315 272/359/316
f 267/356/311 269/355/313 273/360/317 271/361/315
f 269/355/313 270/357/314 274/362/318 273/360/317
f 270/357/314 268/354/312 272/359/316 274/362/318
f 272/359/316 271/358/315 275/363/319
f 271/361/315 273/360/317 275/363/319
f 273/360/317 274/362/318 275/363/319
f 274/362/318 272/359/316 275/363/319
