# This file uses centimeters as units for non-parametric coordinates.

mtllib Ground.mtl
g default
v -2270.526123 -17.255604 2522.260498
v -1816.420898 -17.255604 2522.260498
v -1362.315796 -17.255604 2522.260498
v -454.105194 -17.255604 2522.260498
v 0.000000 -17.255604 2522.260498
v 454.105347 -17.255604 2522.260498
v 908.210388 -17.255604 2522.260498
v 1362.315796 -17.255604 2522.260498
v 1816.421143 -17.255604 2522.260498
v 2270.526123 -17.255604 2522.260498
v -2270.526123 -17.255604 2095.516846
v -1816.420898 -17.255604 2095.516846
v -1362.315796 -17.255604 2095.516846
v -454.105194 -17.255604 2095.516846
v 0.000000 -17.255604 2095.516846
v 454.105347 -17.255604 2095.516846
v 908.210388 -17.255604 2095.516846
v 1362.315796 -17.255604 2095.516846
v 1816.421143 -17.255604 2095.516846
v 2270.526123 -17.255604 2095.516846
v -2270.526123 -17.255604 1668.773193
v -1816.420898 -17.255604 1668.773193
v -1362.315796 -17.255604 1668.773193
v -454.105194 -17.255604 1668.773193
v 0.000000 -17.255604 1668.773193
v 454.105347 -17.255604 1668.773193
v 908.210388 -17.255604 1668.773193
v 1362.315796 -17.255604 1668.773193
v 1816.421143 -17.255604 1668.773193
v 2270.526123 -17.255604 1668.773193
v -2270.526123 -17.255604 1242.029419
v -1816.420898 -17.255604 1242.029419
v -1362.315796 -17.255604 1242.029419
v -454.105194 -17.255604 1242.029419
v 0.000000 -17.255604 1242.029419
v 454.105347 -17.255604 1242.029419
v 908.210388 -17.255604 1242.029419
v 1362.315796 -17.255604 1242.029419
v 1816.421143 -17.255604 1242.029419
v 2270.526123 -17.255604 1242.029419
v -2270.526123 -17.255604 815.285767
v -1816.420898 -17.255604 815.285767
v -1362.315796 -17.255604 815.285767
v -454.105194 -17.255604 815.285767
v 0.000000 -17.255604 815.285767
v 454.105347 -17.255604 815.285767
v 908.210388 -17.255604 815.285767
v 1362.315796 -17.255604 815.285767
v 1816.421143 -17.255604 815.285767
v 2270.526123 -17.255604 815.285767
v -2270.526123 -17.255604 388.542145
v -1816.420898 -17.255604 388.542145
v -1362.315796 -17.255604 388.542145
v -454.105194 -17.255604 388.542145
v 0.000000 -17.255604 388.542145
v 454.105347 -17.255604 388.542145
v 908.210388 -17.255604 388.542145
v 1362.315796 -17.255604 388.542145
v 1816.421143 -17.255604 388.542145
v 2270.526123 -17.255604 388.542145
v -2270.526123 -17.255604 -38.201599
v -1816.420898 -17.255604 -38.201599
v -1362.315796 -17.255604 -38.201599
v -454.105194 -17.255604 -38.201599
v 0.000000 -17.255604 -38.201599
v 454.105347 -17.255604 -38.201599
v 908.210388 -17.255604 -38.201599
v 1362.315796 -17.255604 -38.201599
v 1816.421143 -17.255604 -38.201599
v 2270.526123 -17.255604 -38.201599
v -2270.526123 -17.255604 -891.688843
v -1816.420898 -17.255604 -891.688843
v -1362.315796 -17.255604 -891.688843
v -454.105194 -17.255604 -891.688843
v 0.000000 -17.255604 -891.688843
v 454.105347 -17.255604 -891.688843
v 908.210388 -17.255604 -891.688843
v 1362.315796 -17.255604 -891.688843
v 1816.421143 -17.255604 -891.688843
v 2270.526123 -17.255604 -891.688843
v -2270.526123 -17.255604 -1318.432739
v -1816.420898 -17.255604 -1318.432739
v -1362.315796 -17.255604 -1318.432739
v -454.105194 -17.255604 -1318.432739
v 0.000000 -17.255604 -1318.432739
v 454.105347 -17.255604 -1318.432739
v 908.210388 -17.255604 -1318.432739
v 1362.315796 -17.255604 -1318.432739
v 1816.421143 -17.255604 -1318.432739
v 2270.526123 -17.255604 -1318.432739
v -2270.526123 -17.255604 -1745.176025
v -1816.420898 -17.255604 -1745.176025
v -1362.315796 -17.255604 -1745.176025
v -454.105194 -17.255604 -1745.176025
v 0.000000 -17.255604 -1745.176025
v 454.105347 -17.255604 -1745.176025
v 908.210388 -17.255604 -1745.176025
v 1362.315796 -17.255604 -1745.176025
v 1816.421143 -17.255604 -1745.176025
v 2270.526123 -17.255604 -1745.176025
v -1135.263062 21.049744 2522.260498
v -1135.263062 21.049744 2095.516846
v -1135.263062 21.049744 1668.773193
v -1135.263062 21.049744 1242.029419
v -1135.263062 21.049744 815.285767
v -1135.263062 21.049744 388.542145
v -1135.263062 21.049744 -38.201599
v -1135.263062 21.049744 -891.688843
v -1135.263062 21.049744 -1318.432739
v -1135.263062 21.049744 -1745.176025
v -942.268311 -17.255604 2522.260498
v -942.268311 -17.255604 2095.516846
v -942.268311 -17.255604 1668.773193
v -942.268311 -17.255604 1242.029419
v -942.268311 -17.255604 815.285767
v -942.268311 -17.255604 388.542145
v -942.268311 -17.255604 -38.201599
v -942.268311 -17.255604 -891.688843
v -942.268311 -17.255604 -1318.432739
v -942.268311 -17.255604 -1745.176025
v 1019.280457 44.705452 2522.260498
v 1019.280457 44.705452 2095.516846
v 1019.280457 44.705452 1668.773193
v 1019.280457 44.705452 1242.029419
v 1019.280457 13.605390 815.285767
v 1024.608154 25.603243 388.542145
v 1019.280457 9.039609 -38.201599
v 1019.280457 -8.395395 -891.688843
v 1019.280457 16.454933 -1318.432739
v 1019.280457 44.705452 -1745.176025
v 1137.971802 -4.956080 2522.260498
v 1137.971802 -4.956080 2095.517090
v 1137.971802 -4.956080 1668.773193
v 1137.971802 -4.956080 1242.029419
v 1137.971802 -4.956080 815.285767
v 1137.971802 -4.956080 388.542145
v 1137.971802 -4.956080 -38.201599
v 1137.971802 30.426222 -891.688843
v 1137.971802 30.426222 -1318.432739
v 1137.971802 -4.956080 -1745.176025
v -2270.526123 -17.255604 1028.657593
v -1816.420898 -17.255604 1028.657593
v -1362.315796 -17.255604 1028.657593
v -1135.263062 21.049744 1028.657593
v -942.268311 -17.255604 1028.657593
v -454.105194 -13.969558 1028.657593
v 0.000000 -17.255604 1028.657593
v 454.105347 -14.393226 1028.657593
v 908.210388 -17.255604 1028.657593
v 1019.280457 44.705452 1028.657593
v 1137.971802 -4.956080 1028.657593
v 1362.315796 -17.255604 1028.657593
v 1816.421143 -17.255604 1028.657593
v 2270.526123 -17.255604 1028.657593
v -2270.526123 -17.255610 89.821503
v -1816.420898 -17.255610 89.821503
v -1362.315796 -17.255610 89.821503
v -1135.263062 21.049736 89.821503
v -942.268311 -17.255610 89.821503
v -454.105194 -17.255610 89.821503
v 0.000000 -17.255610 89.821503
v 454.105347 -17.255610 89.821503
v 908.210388 14.729669 89.821503
v 1024.608154 57.588520 89.821503
v 1137.971802 -4.956084 89.821503
v 1362.315796 -17.255610 89.821503
v 1816.421143 -17.255610 89.821503
v 2270.526123 -17.255610 89.821503
v -2270.526123 -17.255604 687.262695
v -1816.420898 -17.255604 687.262695
v -1362.315796 -17.255604 687.262695
v -1135.263062 21.049744 687.262695
v -942.268311 -17.255604 687.262695
v -454.105194 -17.255604 687.262695
v 0.000000 -17.255604 687.262695
v 454.105347 -17.255604 687.262695
v 908.210388 -17.255604 687.262695
v 1019.280457 13.605390 687.262695
v 1137.971802 -4.956080 687.262695
v 1362.315796 -17.255604 687.262695
v 1816.421143 -17.255604 687.262695
v 2270.526123 -17.255604 687.262695
vt 0.000000 0.000000
vt 0.100000 0.000000
vt 0.100000 0.100000
vt 0.000000 0.100000
vt 0.200000 0.000000
vt 0.200000 0.100000
vt 0.250000 0.000000
vt 0.250000 0.100000
vt 0.400000 0.000000
vt 0.500000 0.000000
vt 0.500000 0.100000
vt 0.400000 0.100000
vt 0.600000 0.000000
vt 0.600000 0.100000
vt 0.700000 0.000000
vt 0.720000 0.000000
vt 0.720000 0.100000
vt 0.700000 0.100000
vt 0.800000 0.000000
vt 0.900000 0.000000
vt 0.900000 0.100000
vt 0.800000 0.100000
vt 1.000000 0.000000
vt 1.000000 0.100000
vt 0.100000 0.200000
vt 0.000000 0.200000
vt 0.200000 0.200000
vt 0.250000 0.200000
vt 0.500000 0.200000
vt 0.400000 0.200000
vt 0.600000 0.200000
vt 0.720000 0.200000
vt 0.700000 0.200000
vt 0.900000 0.200000
vt 0.800000 0.200000
vt 1.000000 0.200000
vt 0.100000 0.300000
vt 0.000000 0.300000
vt 0.200000 0.300000
vt 0.250000 0.300000
vt 0.500000 0.300000
vt 0.400000 0.300000
vt 0.600000 0.300000
vt 0.720000 0.300000
vt 0.700000 0.300000
vt 0.900000 0.300000
vt 0.800000 0.300000
vt 1.000000 0.300000
vt 0.000000 0.350000
vt 0.100000 0.350000
vt 0.100000 0.400000
vt 0.000000 0.400000
vt 0.200000 0.350000
vt 0.200000 0.400000
vt 0.250000 0.350000
vt 0.250000 0.400000
vt 0.400000 0.350000
vt 0.500000 0.350000
vt 0.500000 0.400000
vt 0.400000 0.400000
vt 0.600000 0.350000
vt 0.600000 0.400000
vt 0.700000 0.350000
vt 0.720000 0.350000
vt 0.720000 0.400000
vt 0.700000 0.400000
vt 0.800000 0.350000
vt 0.900000 0.350000
vt 0.900000 0.400000
vt 0.800000 0.400000
vt 1.000000 0.350000
vt 1.000000 0.400000
vt 0.000000 0.430000
vt 0.100000 0.430000
vt 0.100000 0.500000
vt 0.000000 0.500000
vt 0.200000 0.430000
vt 0.200000 0.500000
vt 0.250000 0.430000
vt 0.250000 0.500000
vt 0.400000 0.430000
vt 0.500000 0.430000
vt 0.500000 0.500000
vt 0.400000 0.500000
vt 0.600000 0.430000
vt 0.600000 0.500000
vt 0.700000 0.430000
vt 0.720000 0.430000
vt 0.720000 0.500000
vt 0.700000 0.500000
vt 0.800000 0.430000
vt 0.900000 0.430000
vt 0.900000 0.500000
vt 0.800000 0.500000
vt 1.000000 0.430000
vt 1.000000 0.500000
vt 0.100000 0.600000
vt 0.000000 0.600000
vt 0.000000 0.570000
vt 0.100000 0.570000
vt 0.200000 0.600000
vt 0.200000 0.570000
vt 0.250000 0.600000
vt 0.250000 0.570000
vt 0.500000 0.600000
vt 0.400000 0.600000
vt 0.400000 0.570000
vt 0.500000 0.570000
vt 0.600000 0.600000
vt 0.600000 0.570000
vt 0.700000 0.570000
vt 0.700000 0.600000
vt 0.720000 0.600000
vt 0.720000 0.570000
vt 0.900000 0.600000
vt 0.800000 0.600000
vt 0.800000 0.570000
vt 0.900000 0.570000
vt 1.000000 0.570000
vt 1.000000 0.600000
vt 0.000000 0.800000
vt 0.100000 0.800000
vt 0.100000 0.900000
vt 0.000000 0.900000
vt 0.200000 0.800000
vt 0.200000 0.900000
vt 0.250000 0.800000
vt 0.250000 0.900000
vt 0.400000 0.800000
vt 0.500000 0.800000
vt 0.500000 0.900000
vt 0.400000 0.900000
vt 0.600000 0.800000
vt 0.600000 0.900000
vt 0.700000 0.800000
vt 0.720000 0.800000
vt 0.720000 0.900000
vt 0.700000 0.900000
vt 0.800000 0.800000
vt 0.900000 0.800000
vt 0.900000 0.900000
vt 0.800000 0.900000
vt 1.000000 0.800000
vt 1.000000 0.900000
vt 0.100000 1.000000
vt 0.000000 1.000000
vt 0.200000 1.000000
vt 0.250000 1.000000
vt 0.500000 1.000000
vt 0.400000 1.000000
vt 0.600000 1.000000
vt 0.720000 1.000000
vt 0.700000 1.000000
vt 0.900000 1.000000
vt 0.800000 1.000000
vt 1.000000 1.000000
vt 0.292500 0.000000
vt 0.292500 0.100000
vt 0.292500 0.200000
vt 0.292500 0.300000
vt 0.292500 0.350000
vt 0.292500 0.400000
vt 0.292500 0.430000
vt 0.292500 0.500000
vt 0.292500 0.570000
vt 0.292500 0.600000
vt 0.292500 0.800000
vt 0.292500 0.900000
vt 0.292500 1.000000
vt 0.736000 0.000000
vt 0.736000 0.100000
vt 0.736000 0.200000
vt 0.736000 0.300000
vt 0.736000 0.350000
vt 0.736000 0.400000
vt 0.736000 0.430000
vt 0.736000 0.500000
vt 0.736000 0.600000
vt 0.736000 0.570000
vt 0.736000 0.800000
vt 0.736000 0.900000
vt 0.736000 1.000000
vn 0.000000 1.000000 0.000000
vn 0.000000 1.000000 0.000000
vn 0.000000 1.000000 0.000000
vn 0.000000 1.000000 0.000000
vn 0.000000 1.000000 0.000000
vn 0.000000 1.000000 0.000000
vn -0.166356 0.986066 0.000000
vn -0.166356 0.986066 0.000000
vn 0.000000 1.000000 0.000000
vn 0.000000 1.000000 0.000000
vn 0.000000 1.000000 0.000000
vn 0.000000 1.000000 0.000000
vn 0.000000 1.000000 0.000000
vn 0.000000 1.000000 0.000000
vn -0.487177 0.873303 0.000000
vn -0.487177 0.873303 0.000000
vn -0.487177 0.873303 0.000000
vn -0.487177 0.873303 0.000000
vn 0.000000 1.000000 0.000000
vn 0.000000 1.000000 0.000000
vn 0.000000 1.000000 0.000000
vn 0.000000 1.000000 0.000000
vn 0.000000 1.000000 0.000000
vn 0.000000 1.000000 0.000000
vn 0.000000 1.000000 0.000000
vn 0.000000 1.000000 0.000000
vn 0.000000 1.000000 0.000000
vn -0.166356 0.986066 0.000000
vn 0.000000 1.000000 0.000000
vn 0.000000 1.000000 0.000000
vn 0.000000 1.000000 0.000000
vn -0.487177 0.873303 0.000000
vn -0.487177 0.873303 0.000000
vn 0.000000 1.000000 0.000000
vn 0.000000 1.000000 0.000000
vn 0.000000 1.000000 0.000000
vn 0.000000 1.000000 0.000000
vn 0.000000 1.000000 0.000000
vn 0.000000 1.000000 0.000000
vn -0.166356 0.986066 0.000000
vn 0.000000 1.000000 0.000000
vn 0.000000 1.000000 0.000000
vn 0.000000 1.000000 0.000000
vn -0.487177 0.873303 0.000000
vn -0.487177 0.873303 0.000000
vn 0.000000 1.000000 0.000000
vn 0.000000 1.000000 0.000000
vn 0.000000 1.000000 0.000000
vn 0.000000 1.000000 0.000000
vn 0.000000 1.000000 0.000000
vn 0.000000 1.000000 0.000000
vn 0.000000 1.000000 0.000000
vn 0.000000 1.000000 0.000000
vn 0.000000 1.000000 0.000000
vn -0.166356 0.986066 0.000000
vn -0.166356 0.986066 0.000000
vn 0.003618 0.999964 -0.007700
vn 0.003618 0.999964 -0.007700
vn 0.003618 0.999964 -0.007700
vn 0.003618 0.999964 -0.007700
vn -0.003152 0.999973 -0.006707
vn -0.003152 0.999973 -0.006707
vn -0.384680 0.920609 -0.067092
vn -0.384680 0.920609 -0.067092
vn -0.384680 0.920609 -0.067092
vn -0.384680 0.920609 -0.067092
vn 0.000000 1.000000 0.000000
vn 0.000000 1.000000 0.000000
vn 0.000000 1.000000 0.000000
vn 0.000000 1.000000 0.000000
vn 0.000000 1.000000 0.000000
vn 0.000000 1.000000 0.000000
vn 0.000000 1.000000 0.000000
vn 0.000000 1.000000 0.000000
vn 0.000000 1.000000 0.000000
vn 0.000000 1.000000 0.000000
vn 0.000000 1.000000 0.000000
vn 0.000000 1.000000 0.000000
vn -0.166356 0.986066 0.000000
vn -0.166356 0.986066 0.000000
vn 0.000000 1.000000 0.000000
vn 0.000000 1.000000 0.000000
vn 0.000000 1.000000 0.000000
vn 0.000000 1.000000 0.000000
vn 0.000000 1.000000 0.000000
vn 0.000000 1.000000 0.000000
vn -0.308261 0.951161 0.016352
vn -0.308261 0.951161 0.016352
vn -0.308261 0.951161 0.016352
vn -0.308261 0.951161 0.016352
vn 0.000000 1.000000 0.000000
vn 0.000000 1.000000 0.000000
vn 0.000000 1.000000 0.000000
vn 0.000000 1.000000 0.000000
vn 0.000000 1.000000 0.000000
vn 0.000000 1.000000 0.000000
vn 0.000000 1.000000 0.000000
vn 0.000000 1.000000 0.000000
vn 0.000000 1.000000 0.000000
vn 0.000000 1.000000 0.000000
vn 0.000000 1.000000 0.000000
vn 0.000000 1.000000 0.000000
vn -0.166356 0.986066 0.000000
vn -0.166356 0.986066 0.000000
vn 0.000000 1.000000 0.000000
vn 0.000000 1.000000 0.000000
vn 0.000000 1.000000 0.000000
vn 0.000000 1.000000 0.000000
vn 0.000000 1.000000 0.000000
vn 0.000000 1.000000 0.000000
vn -0.034925 0.991682 -0.123881
vn -0.034925 0.991682 -0.123881
vn -0.278995 0.917696 -0.282838
vn -0.278995 0.917696 -0.282838
vn 0.000000 1.000000 0.000000
vn 0.000000 1.000000 0.000000
vn 0.000000 1.000000 0.000000
vn 0.000000 1.000000 0.000000
vn 0.000000 1.000000 0.000000
vn 0.000000 1.000000 0.000000
vn 0.000000 1.000000 0.000000
vn 0.000000 1.000000 0.000000
vn 0.000000 1.000000 0.000000
vn 0.000000 1.000000 0.000000
vn 0.000000 1.000000 0.000000
vn 0.000000 1.000000 0.000000
vn -0.166356 0.986066 0.000000
vn -0.166356 0.986066 0.000000
vn 0.000000 1.000000 0.000000
vn 0.000000 1.000000 0.000000
vn 0.000000 1.000000 0.000000
vn 0.000000 1.000000 0.000000
vn 0.000000 1.000000 0.000000
vn 0.000000 1.000000 0.000000
vn -0.407171 0.912965 0.026582
vn -0.407171 0.912965 0.026582
vn -0.407171 0.912965 0.026582
vn -0.407171 0.912965 0.026582
vn 0.000000 1.000000 0.000000
vn 0.000000 1.000000 0.000000
vn 0.000000 1.000000 0.000000
vn 0.000000 1.000000 0.000000
vn 0.000000 1.000000 0.000000
vn 0.000000 1.000000 0.000000
vn 0.000000 1.000000 0.000000
vn 0.000000 1.000000 0.000000
vn 0.000000 1.000000 0.000000
vn -0.166356 0.986066 0.000000
vn 0.000000 1.000000 0.000000
vn 0.000000 1.000000 0.000000
vn 0.000000 1.000000 0.000000
vn -0.487177 0.873303 0.000000
vn -0.487177 0.873303 0.000000
vn 0.000000 1.000000 0.000000
vn 0.000000 1.000000 0.000000
vn 0.000000 1.000000 0.000000
vn 0.194681 0.980867 0.000000
vn 0.194681 0.980867 0.000000
vn 0.194681 0.980867 0.000000
vn 0.194681 0.980867 0.000000
vn 0.194681 0.980867 0.000000
vn 0.194681 0.980867 0.000000
vn 0.194681 0.980867 0.000000
vn 0.194681 0.980867 0.000000
vn 0.194681 0.980867 0.000000
vn 0.194681 0.980867 0.000000
vn 0.194681 0.980867 0.000000
vn 0.194681 0.980867 0.000000
vn 0.194681 0.980867 0.000000
vn 0.385984 0.922505 0.000000
vn 0.385984 0.922505 0.000000
vn 0.385984 0.922505 0.000000
vn 0.385984 0.922505 0.000000
vn 0.275541 0.958747 -0.069871
vn 0.275541 0.958747 -0.069871
vn 0.207040 0.978096 0.021488
vn 0.207040 0.978096 0.021488
vn 0.307924 0.933563 -0.183420
vn 0.307924 0.933563 -0.183420
vn 0.299223 0.953779 0.027770
vn 0.299223 0.953779 0.027770
vn 0.385984 0.922505 0.000000
s 1
g Ground_LP
usemtl Ground:lambert6SG
f 1/1/1 2/2/2 12/3/3 11/4/4
f 2/2/2 3/5/5 13/6/6 12/3/3
f 3/5/5 101/7/7 102/8/8 13/6/6
f 4/9/9 5/10/10 15/11/11 14/12/12
f 5/10/10 6/13/13 16/14/14 15/11/11
f 7/15/15 121/16/16 122/17/17 17/18/18
f 8/19/19 9/20/20 19/21/21 18/22/22
f 9/20/20 10/23/23 20/24/24 19/21/21
f 11/4/4 12/3/3 22/25/25 21/26/26
f 12/3/3 13/6/6 23/27/27 22/25/25
f 13/6/6 102/8/8 103/28/28 23/27/27
f 14/12/12 15/11/11 25/29/29 24/30/30
f 15/11/11 16/14/14 26/31/31 25/29/29
f 17/18/18 122/17/17 123/32/32 27/33/33
f 18/22/22 19/21/21 29/34/34 28/35/35
f 19/21/21 20/24/24 30/36/36 29/34/34
f 21/26/26 22/25/25 32/37/37 31/38/38
f 22/25/25 23/27/27 33/39/39 32/37/37
f 23/27/27 103/28/28 104/40/40 33/39/39
f 24/30/30 25/29/29 35/41/41 34/42/42
f 25/29/29 26/31/31 36/43/43 35/41/41
f 27/33/33 123/32/32 124/44/44 37/45/45
f 28/35/35 29/34/34 39/46/46 38/47/47
f 29/34/34 30/36/36 40/48/48 39/46/46
f 141/49/49 142/50/50 42/51/51 41/52/52
f 142/50/50 143/53/53 43/54/54 42/51/51
f 143/53/53 144/55/55 105/56/56 43/54/54
f 146/57/57 147/58/58 45/59/59 44/60/60
f 147/58/58 148/61/61 46/62/62 45/59/59
f 149/63/63 150/64/64 125/65/65 47/66/66
f 152/67/67 153/68/68 49/69/69 48/70/70
f 153/68/68 154/71/71 50/72/72 49/69/69
f 169/73/73 170/74/74 52/75/75 51/76/76
f 170/74/74 171/77/77 53/78/78 52/75/75
f 171/77/77 172/79/79 106/80/80 53/78/78
f 174/81/81 175/82/82 55/83/83 54/84/84
f 175/82/82 176/85/85 56/86/86 55/83/83
f 177/87/87 178/88/88 126/89/89 57/90/90
f 180/91/91 181/92/92 59/93/93 58/94/94
f 181/92/92 182/95/95 60/96/96 59/93/93
f 62/97/97 61/98/98 155/99/99 156/100/100
f 63/101/101 62/97/97 156/100/100 157/102/102
f 107/103/103 63/101/101 157/102/102 158/104/104
f 65/105/105 64/106/106 160/107/107 161/108/108
f 66/109/109 65/105/105 161/108/108 162/110/110
f 66/109/109 162/110/110 163/111/111 67/112/112
f 127/113/113 67/112/112 163/111/111 164/114/114
f 69/115/115 68/116/116 166/117/117 167/118/118
f 168/119/119 70/120/120 69/115/115 167/118/118
f 71/121/121 72/122/122 82/123/123 81/124/124
f 72/122/122 73/125/125 83/126/126 82/123/123
f 73/125/125 108/127/127 109/128/128 83/126/126
f 74/129/129 75/130/130 85/131/131 84/132/132
f 75/130/130 76/133/133 86/134/134 85/131/131
f 77/135/135 128/136/136 129/137/137 87/138/138
f 78/139/139 79/140/140 89/141/141 88/142/142
f 79/140/140 80/143/143 90/144/144 89/141/141
f 81/124/124 82/123/123 92/145/145 91/146/146
f 82/123/123 83/126/126 93/147/147 92/145/145
f 83/126/126 109/128/128 110/148/148 93/147/147
f 84/132/132 85/131/131 95/149/149 94/150/150
f 85/131/131 86/134/134 96/151/151 95/149/149
f 87/138/138 129/137/137 130/152/152 97/153/153
f 88/142/142 89/141/141 99/154/154 98/155/155
f 89/141/141 90/144/144 100/156/156 99/154/154
f 102/8/8 101/7/7 111/157/157 112/158/158
f 103/28/28 102/8/8 112/158/158 113/159/159
f 104/40/40 103/28/28 113/159/159 114/160/160
f 105/56/56 144/55/55 145/161/161 115/162/162
f 106/80/80 172/79/79 173/163/163 116/164/164
f 107/103/103 158/104/104 159/165/165 117/166/166
f 109/128/128 108/127/127 118/167/167 119/168/168
f 120/169/169 110/148/148 109/128/128 119/168/168
f 64/106/106 117/166/166 159/165/165 160/107/107
f 122/17/17 121/16/16 131/170/170 132/171/171
f 123/32/32 122/17/17 132/171/171 133/172/172
f 124/44/44 123/32/32 133/172/172 134/173/173
f 125/65/65 150/64/64 151/174/174 135/175/175
f 126/89/89 178/88/88 179/176/176 136/177/177
f 137/178/178 127/113/113 164/114/114 165/179/179
f 129/137/137 128/136/136 138/180/180 139/181/181
f 130/152/152 129/137/137 139/181/181 140/182/182
f 132/171/171 131/170/170 8/19/19 18/22/22
f 133/172/172 132/171/171 18/22/22 28/35/35
f 134/173/173 133/172/172 28/35/35 38/47/47
f 135/175/175 151/174/174 152/67/67 48/70/70
f 136/177/177 179/176/176 180/91/91 58/94/94
f 68/116/116 137/178/178 165/179/179 166/117/117
f 139/181/181 138/180/180 78/139/139 88/142/142
f 140/182/182 139/181/181 88/142/142 98/155/155
f 111/157/157 4/9/9 14/12/12 112/158/158
f 14/12/12 24/30/30 113/159/159 112/158/158
f 24/30/30 34/42/42 114/160/160 113/159/159
f 146/57/57 44/60/60 115/162/162 145/161/161
f 174/81/81 54/84/84 116/164/164 173/163/163
f 74/129/129 84/132/132 119/168/168 118/167/167
f 84/132/132 94/150/150 120/169/169 119/168/168
f 142/50/50 141/49/49 31/38/38 32/37/37
f 143/53/53 142/50/50 32/37/37 33/39/39
f 144/55/55 143/53/53 33/39/39 104/40/40
f 145/161/161 144/55/55 104/40/40 114/160/160
f 147/58/58 146/57/57 34/42/42 35/41/41
f 148/61/61 147/58/58 35/41/41 36/43/43
f 150/64/64 149/63/63 37/45/45 124/44/44
f 151/174/174 150/64/64 124/44/44 134/173/173
f 152/67/67 151/174/174 134/173/173 38/47/47
f 153/68/68 152/67/67 38/47/47 39/46/46
f 40/48/48 154/71/71 153/68/68 39/46/46
f 71/121/121 61/98/98 62/97/97 72/122/122
f 62/97/97 63/101/101 73/125/125 72/122/122
f 63/101/101 107/103/103 108/127/127 73/125/125
f 118/167/167 108/127/127 107/103/103 117/166/166
f 74/129/129 118/167/167 117/166/166 64/106/106
f 64/106/106 65/105/105 75/130/130 74/129/129
f 65/105/105 66/109/109 76/133/133 75/130/130
f 77/135/135 76/133/133 66/109/109 67/112/112
f 67/112/112 127/113/113 128/136/136 77/135/135
f 127/113/113 137/178/178 138/180/180 128/136/136
f 137/178/178 68/116/116 78/139/139 138/180/180
f 68/116/116 69/115/115 79/140/140 78/139/139
f 69/115/115 70/120/120 80/143/143 79/140/140
f 51/76/76 52/75/75 156/100/100 155/99/99
f 52/75/75 53/78/78 157/102/102 156/100/100
f 53/78/78 106/80/80 158/104/104 157/102/102
f 158/104/104 106/80/80 116/164/164 159/165/165
f 54/84/84 160/107/107 159/165/165 116/164/164
f 54/84/84 55/83/83 161/108/108 160/107/107
f 55/83/83 56/86/86 162/110/110 161/108/108
f 57/90/90 126/89/89 164/114/114 163/111/111
f 165/179/179 164/114/114 126/89/89 136/177/177
f 166/117/117 165/179/179 136/177/177 58/94/94
f 58/94/94 59/93/93 167/118/118 166/117/117
f 59/93/93 60/96/96 168/119/119 167/118/118
f 41/52/52 42/51/51 170/74/74 169/73/73
f 42/51/51 43/54/54 171/77/77 170/74/74
f 43/54/54 105/56/56 172/79/79 171/77/77
f 173/163/163 172/79/79 105/56/56 115/162/162
f 44/60/60 174/81/81 173/163/163 115/162/162
f 44/60/60 45/59/59 175/82/82 174/81/81
f 45/59/59 46/62/62 176/85/85 175/82/82
f 47/66/66 125/65/65 178/88/88 177/87/87
f 179/176/176 178/88/88 125/65/65 135/175/175
f 180/91/91 179/176/176 135/175/175 48/70/70
f 48/70/70 49/69/69 181/92/92 180/91/91
f 49/69/69 50/72/72 182/95/95 181/92/92
f 145/161/161 114/160/160 34/42/42 146/57/57
f 6/13/13 7/15/15 17/18/18 16/14/14
f 17/18/18 27/33/33 26/31/31 16/14/14
f 27/33/33 37/45/45 36/43/43 26/31/31
f 148/61/61 36/43/43 37/45/45 149/63/63
f 149/63/63 47/66/66 46/62/62 148/61/61
f 47/66/66 177/87/87 176/85/85 46/62/62
f 177/87/87 57/90/90 56/86/86 176/85/85
f 57/90/90 163/111/111 162/110/110 56/86/86
f 77/135/135 87/138/138 86/134/134 76/133/133
f 87/138/138 97/153/153 96/151/151 86/134/134
